<svg width="144" height="145" viewBox="0 0 144 145" fill="none" xmlns="http://www.w3.org/2000/svg">
<path opacity="0.5" d="M72.3333 12.8052C39.3496 12.8052 12.6111 39.5437 12.6111 72.5274C12.6111 75.1832 12.7845 77.7985 13.1205 80.363C16.7116 79.1548 20.558 78.4996 24.5564 78.4996C44.3466 78.4996 60.3901 94.5428 60.3901 114.333C60.3901 120.024 59.0624 125.404 56.7017 130.183C61.6842 131.531 66.9249 132.25 72.3333 132.25C101.469 132.25 125.733 111.385 130.997 83.7821C114.573 80.5146 102.194 66.0225 102.194 48.639C102.194 40.1593 105.14 32.367 110.063 26.2305C99.7781 17.8381 86.6434 12.8052 72.3333 12.8052Z" fill="#8D8DFF"/>
<path d="M13.1185 80.3628C16.2713 104.422 33.7441 123.974 56.6996 130.183C59.0603 125.404 60.3877 120.024 60.3877 114.333C60.3877 94.5427 44.3446 78.4995 24.5544 78.4995C20.556 78.4995 16.7096 79.1547 13.1185 80.3628Z" fill="#8D8DFF"/>
<path d="M130.997 83.7826C131.692 80.1377 132.056 76.3752 132.056 72.5279C132.056 53.8542 123.485 37.1823 110.063 26.231C105.14 32.3675 102.194 40.1597 102.194 48.6395C102.194 66.023 114.573 80.5152 130.997 83.7826Z" fill="#8D8DFF"/>
<path d="M96.2222 96.4166C96.2222 99.715 93.5484 102.389 90.25 102.389C86.9515 102.389 84.2777 99.715 84.2777 96.4166C84.2777 93.1181 86.9515 90.4443 90.25 90.4443C93.5484 90.4443 96.2222 93.1181 96.2222 96.4166Z" fill="#8D8DFF"/>
<path d="M78.3055 51.6249C78.3055 59.8708 71.6208 66.5554 63.375 66.5554C55.129 66.5554 48.4444 59.8708 48.4444 51.6249C48.4444 43.379 55.129 36.6943 63.375 36.6943C71.6208 36.6943 78.3055 43.379 78.3055 51.6249Z" fill="#8D8DFF"/>
</svg>
