<svg width="178" height="132" viewBox="0 0 178 132" fill="none" xmlns="http://www.w3.org/2000/svg">
<g opacity="0.5">
<path d="M89.0002 14.833C48.039 14.833 14.8335 48.0385 14.8335 88.9997C14.8335 92.2979 15.0488 95.5456 15.4661 98.7303C19.9258 97.2299 24.7025 96.4163 29.6679 96.4163C54.2446 96.4163 74.1683 116.34 74.1683 140.916C74.1683 147.984 72.5195 154.665 69.5879 160.6C75.7755 162.273 82.2836 163.166 89.0002 163.166C125.183 163.166 155.315 137.255 161.852 102.976C141.456 98.9187 126.083 80.9214 126.083 59.3336C126.083 48.803 129.741 39.1261 135.856 31.5054C123.083 21.0833 106.771 14.833 89.0002 14.833Z" fill="#8D8DFF"/>
<path d="M89.0002 14.833C48.039 14.833 14.8335 48.0385 14.8335 88.9997C14.8335 92.2979 15.0488 95.5456 15.4661 98.7303C19.9258 97.2299 24.7025 96.4163 29.6679 96.4163C54.2446 96.4163 74.1683 116.34 74.1683 140.916C74.1683 147.984 72.5195 154.665 69.5879 160.6C75.7755 162.273 82.2836 163.166 89.0002 163.166C125.183 163.166 155.315 137.255 161.852 102.976C141.456 98.9187 126.083 80.9214 126.083 59.3336C126.083 48.803 129.741 39.1261 135.856 31.5054C123.083 21.0833 106.771 14.833 89.0002 14.833Z" fill="url(#paint0_linear_1_569)" fill-opacity="0.2"/>
</g>
<path d="M15.4634 98.731C19.3788 128.609 41.0776 152.89 69.5851 160.601C72.5168 154.666 74.1652 147.984 74.1652 140.917C74.1652 116.34 54.2419 96.417 29.6652 96.417C24.6997 96.417 19.923 97.2306 15.4634 98.731Z" fill="#8D8DFF"/>
<path d="M161.852 102.978C162.715 98.4515 163.167 93.779 163.167 89.0012C163.167 65.8111 152.524 45.1069 135.856 31.5068C129.741 39.1275 126.083 48.8044 126.083 59.3351C126.083 80.923 141.456 98.9202 161.852 102.978Z" fill="#8D8DFF"/>
<path d="M103.833 106.417C103.833 110.513 100.513 113.833 96.4167 113.833C92.3204 113.833 89 110.513 89 106.417C89 102.32 92.3204 99 96.4167 99C100.513 99 103.833 102.32 103.833 106.417Z" fill="#8D8DFF"/>
<path d="M109 68.5C109 70.9853 106.985 73 104.5 73C102.015 73 100 70.9853 100 68.5C100 66.0147 102.015 64 104.5 64C106.985 64 109 66.0147 109 68.5Z" fill="#8D8DFF"/>
<path d="M79.0833 60.5417C79.0833 70.7819 70.7819 79.0833 60.5417 79.0833C50.3014 79.0833 42 70.7819 42 60.5417C42 50.3014 50.3014 42 60.5417 42C70.7819 42 79.0833 50.3014 79.0833 60.5417Z" fill="#8D8DFF"/>
<defs>
<linearGradient id="paint0_linear_1_569" x1="67.6301" y1="23.0282" x2="140.399" y2="130.195" gradientUnits="userSpaceOnUse">
<stop stop-opacity="0"/>
<stop offset="1"/>
</linearGradient>
</defs>
</svg>
