<svg width="169" height="151" viewBox="0 0 169 151" fill="none" xmlns="http://www.w3.org/2000/svg">
<g clip-path="url(#clip0_9_3981)">
<circle cx="-8.34003" cy="178.287" r="177.805" fill="#52528F"/>
<circle cx="-8.34003" cy="178.287" r="177.805" fill="url(#paint0_linear_9_3981)" fill-opacity="0.2"/>
<path d="M208.667 203.167C208.667 237.686 180.685 265.667 146.167 265.667C111.648 265.667 83.6667 237.686 83.6667 203.167C83.6667 168.648 111.648 140.667 146.167 140.667C180.685 140.667 208.667 168.648 208.667 203.167Z" fill="#8D8DFF"/>
<path d="M11.1378 48.5426C11.1378 58.9558 2.69683 67.3968 -7.71633 67.3968C-18.1295 67.3968 -26.5705 58.9558 -26.5705 48.5426C-26.5705 38.1295 -18.1295 29.6885 -7.71633 29.6885C2.69683 29.6885 11.1378 38.1295 11.1378 48.5426Z" fill="#8D8DFF"/>
</g>
<defs>
<linearGradient id="paint0_linear_9_3981" x1="-58.4399" y1="20.1284" x2="115.436" y2="278.486" gradientUnits="userSpaceOnUse">
<stop stop-opacity="0"/>
<stop offset="1"/>
</linearGradient>
<clipPath id="clip0_9_3981">
<rect x="-244.667" y="0.666504" width="413.333" height="371.667" rx="176.667" fill="white"/>
</clipPath>
</defs>
</svg>
