<svg width="18" height="18" viewBox="0 0 18 18" fill="none" xmlns="http://www.w3.org/2000/svg">
<path d="M8.72128 17.6796C7.53509 17.6796 6.414 17.4518 5.35801 16.9961C4.30201 16.5404 3.37983 15.9184 2.59145 15.13C1.80307 14.3417 1.18104 13.4195 0.725373 12.3635C0.269705 11.3075 0.0418701 10.1864 0.0418701 9.00021C0.0418701 7.79956 0.269705 6.67485 0.725373 5.62609C1.18104 4.57733 1.80307 3.65876 2.59145 2.87038C3.37983 2.082 4.30201 1.45997 5.35801 1.0043C6.414 0.548635 7.53509 0.320801 8.72128 0.320801C9.92193 0.320801 11.0466 0.548635 12.0954 1.0043C13.1442 1.45997 14.0627 2.082 14.8511 2.87038C15.6395 3.65876 16.2615 4.57733 16.7172 5.62609C17.1728 6.67485 17.4007 7.79956 17.4007 9.00021C17.4007 10.1864 17.1728 11.3075 16.7172 12.3635C16.2615 13.4195 15.6395 14.3417 14.8511 15.13C14.0627 15.9184 13.1442 16.5404 12.0954 16.9961C11.0466 17.4518 9.92193 17.6796 8.72128 17.6796ZM8.72128 15.9003C9.09738 15.3796 9.42286 14.8371 9.69771 14.2729C9.97256 13.7088 10.1968 13.1085 10.3704 12.472H7.07219C7.24578 13.1085 7.47 13.7088 7.74484 14.2729C8.01969 14.8371 8.34517 15.3796 8.72128 15.9003ZM6.46463 15.5532C6.20425 15.0758 5.97641 14.5803 5.78113 14.0668C5.58584 13.5533 5.4231 13.0217 5.29291 12.472H2.73249C3.15199 13.1953 3.67637 13.8245 4.30563 14.3597C4.93489 14.895 5.65455 15.2928 6.46463 15.5532ZM10.9779 15.5532C11.788 15.2928 12.5077 14.895 13.1369 14.3597C13.7662 13.8245 14.2906 13.1953 14.7101 12.472H12.1496C12.0195 13.0217 11.8567 13.5533 11.6614 14.0668C11.4661 14.5803 11.2383 15.0758 10.9779 15.5532ZM1.99474 10.7361H4.94573C4.90234 10.4468 4.86979 10.1611 4.84809 9.879C4.82639 9.59692 4.81554 9.30399 4.81554 9.00021C4.81554 8.69643 4.82639 8.4035 4.84809 8.12142C4.86979 7.83934 4.90234 7.55364 4.94573 7.26433H1.99474C1.92241 7.55364 1.86816 7.83934 1.832 8.12142C1.79583 8.4035 1.77775 8.69643 1.77775 9.00021C1.77775 9.30399 1.79583 9.59692 1.832 9.879C1.86816 10.1611 1.92241 10.4468 1.99474 10.7361ZM6.68162 10.7361H10.7609C10.8043 10.4468 10.8369 10.1611 10.8586 9.879C10.8803 9.59692 10.8911 9.30399 10.8911 9.00021C10.8911 8.69643 10.8803 8.4035 10.8586 8.12142C10.8369 7.83934 10.8043 7.55364 10.7609 7.26433H6.68162C6.63822 7.55364 6.60567 7.83934 6.58397 8.12142C6.56227 8.4035 6.55142 8.69643 6.55142 9.00021C6.55142 9.30399 6.56227 9.59692 6.58397 9.879C6.60567 10.1611 6.63822 10.4468 6.68162 10.7361ZM12.4968 10.7361H15.4478C15.5201 10.4468 15.5744 10.1611 15.6106 9.879C15.6467 9.59692 15.6648 9.30399 15.6648 9.00021C15.6648 8.69643 15.6467 8.4035 15.6106 8.12142C15.5744 7.83934 15.5201 7.55364 15.4478 7.26433H12.4968C12.5402 7.55364 12.5728 7.83934 12.5945 8.12142C12.6162 8.4035 12.627 8.69643 12.627 9.00021C12.627 9.30399 12.6162 9.59692 12.5945 9.879C12.5728 10.1611 12.5402 10.4468 12.4968 10.7361ZM12.1496 5.52844H14.7101C14.2906 4.80516 13.7662 4.1759 13.1369 3.64067C12.5077 3.10544 11.788 2.70764 10.9779 2.44726C11.2383 2.92462 11.4661 3.42007 11.6614 3.9336C11.8567 4.44713 12.0195 4.97875 12.1496 5.52844ZM7.07219 5.52844H10.3704C10.1968 4.89195 9.97256 4.29163 9.69771 3.72747C9.42286 3.16331 9.09738 2.62084 8.72128 2.10008C8.34517 2.62084 8.01969 3.16331 7.74484 3.72747C7.47 4.29163 7.24578 4.89195 7.07219 5.52844ZM2.73249 5.52844H5.29291C5.4231 4.97875 5.58584 4.44713 5.78113 3.9336C5.97641 3.42007 6.20425 2.92462 6.46463 2.44726C5.65455 2.70764 4.93489 3.10544 4.30563 3.64067C3.67637 4.1759 3.15199 4.80516 2.73249 5.52844Z" fill="white"/>
</svg>
