<svg width="161" height="159" viewBox="0 0 161 159" fill="none" xmlns="http://www.w3.org/2000/svg">
<path d="M129.683 111.387C120.132 115.607 104.808 120.513 89.3099 120.513C78.7791 120.513 70.6914 118.153 64.1964 115.544C61.6974 114.54 59.378 113.473 57.3594 112.545C56.821 112.297 56.3037 112.06 55.8104 111.835C53.3482 110.717 51.491 109.946 49.8593 109.515C42.2545 107.511 34.6735 106.639 28.9455 106.277C26.0949 106.096 23.7351 106.044 22.1018 106.036C21.2859 106.032 20.6532 106.04 20.2336 106.047C20.0238 106.052 19.8675 106.056 19.7682 106.059L19.6627 106.062L19.6458 106.062L19.3068 106.076C27.7194 128.198 49.7777 143.986 75.6651 143.986C99.4289 143.986 119.966 130.682 129.683 111.387Z" fill="#8D8DFF"/>
<path d="M23.4891 57.66L26.8553 60.4903L26.8635 60.4968L26.9586 60.5741C27.0537 60.65 27.2121 60.7749 27.4317 60.941C27.871 61.274 28.5538 61.773 29.4645 62.3826C31.2883 63.6046 34.0104 65.2621 37.5063 66.9268C44.5101 70.2613 54.4994 73.5691 66.5487 73.5691C74.4705 73.5691 80.5124 71.6956 85.6266 69.4899C87.6719 68.6074 89.5071 67.7025 91.3559 66.7903C91.8936 66.5252 92.4329 66.2587 92.9781 65.993C95.2731 64.8742 97.7789 63.705 100.33 62.9835C108.294 60.7294 115.243 59.7739 120.233 59.3817C122.731 59.1853 124.745 59.1304 126.162 59.1253C126.87 59.1225 127.429 59.1326 127.825 59.1441C128.023 59.1499 128.181 59.1557 128.296 59.1615L128.435 59.1679L128.481 59.1701L128.497 59.1716H128.507L128.711 59.1838C118.64 40.8909 98.6639 28.4302 75.6651 28.4302C53.311 28.4302 33.8121 40.2022 23.4891 57.66Z" fill="#8D8DFF"/>
<path opacity="0.5" d="M134.509 97.554C135.268 93.8844 135.667 90.0891 135.667 86.2043C135.667 80.6915 134.865 75.3594 133.368 70.3096L127.834 69.9817H127.826L127.778 69.9795C127.721 69.9766 127.624 69.973 127.486 69.9687C127.212 69.9608 126.78 69.9528 126.205 69.955C125.053 69.9586 123.331 70.0041 121.149 70.176C116.78 70.519 110.605 71.364 103.502 73.3733C102.045 73.7856 100.359 74.5346 98.0624 75.654C97.6064 75.8765 97.1279 76.1126 96.6284 76.3589C94.7474 77.2877 92.5694 78.3631 90.2264 79.3735C84.1274 82.0038 76.4946 84.3987 66.5501 84.3987C52.3493 84.3987 40.647 80.503 32.5215 76.6341C28.4527 74.6964 25.2508 72.7521 23.0418 71.2723C21.9361 70.532 21.0753 69.9051 20.4751 69.4501C20.1749 69.2226 19.9395 69.0378 19.7709 68.9027L19.5682 68.7387L19.5048 68.6868L19.4826 68.668L19.4739 68.6608C19.4739 68.6608 19.4668 68.655 23.1076 64.6401L19.4668 68.655L18.7016 68.0115C16.7325 73.7315 15.6666 79.848 15.6666 86.2043C15.6666 89.3149 15.9219 92.3677 16.4132 95.3447L19.186 95.2349L19.4166 100.647C19.186 95.2349 19.186 95.2349 19.186 95.2349L19.196 95.2342H19.2117L19.2604 95.232L19.4253 95.227C19.5648 95.2226 19.7627 95.2176 20.0154 95.2133C20.5205 95.2031 21.2451 95.1952 22.1589 95.1995C23.9851 95.2082 26.5749 95.2667 29.6848 95.4639C35.8779 95.8553 44.2615 96.8043 52.8309 99.0634C55.5023 99.7676 58.1449 100.914 60.6114 102.034C61.1914 102.298 61.7662 102.562 62.341 102.826C64.3279 103.739 66.3177 104.653 68.5296 105.542C74.0709 107.768 80.6624 109.676 89.3114 109.676C105.371 109.676 121.795 103.433 129.209 99.5119L134.139 96.9047L134.509 97.554Z" fill="#8D8DFF"/>
</svg>
