<svg width="141" height="147" viewBox="0 0 141 147" fill="none" xmlns="http://www.w3.org/2000/svg">
<circle cx="-64.4332" cy="123.204" r="106.683" fill="#52528F"/>
<circle cx="-64.4332" cy="123.204" r="106.683" fill="url(#paint0_linear_2026_382)" fill-opacity="0.2"/>
<path opacity="0.4" d="M2.02776 78.1109C2.02776 81.5819 -0.785913 84.3956 -4.25696 84.3956C-7.72802 84.3956 -10.5417 81.5819 -10.5417 78.1109C-10.5417 74.6398 -7.72802 71.8262 -4.25696 71.8262C-0.785913 71.8262 2.02776 74.6398 2.02776 78.1109Z" fill="#555591"/>
<path opacity="0.4" d="M20.2535 145.357C20.2535 151.605 15.1889 156.67 8.94098 156.67C2.69309 156.67 -2.37152 151.605 -2.37152 145.357C-2.37152 139.11 2.69309 134.045 8.94098 134.045C15.1889 134.045 20.2535 139.11 20.2535 145.357Z" fill="#3B3B67"/>
<g filter="url(#filter0_dd_2026_382)">
<path fill-rule="evenodd" clip-rule="evenodd" d="M29.588 110.627C28.6275 110.239 27.456 110.537 27.0769 112.149C26.5674 114.315 27.6329 114.415 28.4492 114.492C28.4929 114.496 28.536 114.5 28.5781 114.505C28.3708 114.101 30.0667 115.651 30.0667 115.651C30.0667 115.651 31.7038 116.806 33.0749 118.155L33.4609 118.943L26.3404 115.24C24.8679 115.035 23.1761 117.385 24.5059 120.588C25.7681 123.628 26.5591 122.365 27.1651 121.398L27.1652 121.398L27.1652 121.398C27.1977 121.346 27.2296 121.295 27.2611 121.245C26.8226 121.068 29.112 120.588 29.112 120.588C29.112 120.588 31.5689 119.535 33.6806 119.391L33.97 119.981C33.9166 119.794 33.8567 119.594 33.7916 119.384C33.9444 119.376 34.0951 119.373 34.2426 119.376L34.321 119.803C34.4675 117.498 34.9507 112.808 35.7117 112.486C36.4727 112.164 36.9118 113.025 37.0362 113.496C37.9972 112.939 39.2051 111.411 36.3484 109.749C35.6817 109.361 35.1378 109.209 34.6964 109.224C34.9022 108.468 34.5035 107.688 32.2203 107.101C30.1439 106.567 29.3326 108.812 29.588 110.627ZM33.5589 118.653C33.6998 118.806 33.8348 118.959 33.9611 119.112L32.8962 116.672C31.9946 114.002 31.0377 111.133 31.4217 110.621C32.3648 109.363 33.0546 109.512 33.5011 109.899C33.0443 110.558 32.9186 111.565 32.9456 112.31L34.2372 119.346L33.6905 119.062C33.6482 118.929 33.6042 118.793 33.5589 118.653ZM34.7535 120.863L32.8486 126.777C32.8582 126.617 32.844 126.464 32.8073 126.326C32.3801 126.529 30.4864 126.914 30.1665 126.108C29.8465 125.303 32.8568 121.923 34.4019 120.334L28.0391 124.04C26.8908 124.985 25.4086 127.171 28.6664 128.36C30.8066 129.142 32.0501 128.499 32.5672 127.651L32.4959 127.872C32.2726 129.342 32.6306 131.959 35.849 130.667C39.0675 129.375 37.9427 127.792 36.978 127.162C36.7957 127.598 36.237 128.375 35.4605 127.989C34.6841 127.603 34.6657 123.078 34.7535 120.863Z" fill="url(#paint1_radial_2026_382)"/>
<path d="M29.588 110.627L29.4705 110.918C29.5746 110.96 29.6931 110.943 29.7816 110.874C29.87 110.805 29.9148 110.694 29.8992 110.583L29.588 110.627ZM27.0769 112.149L27.3828 112.221L27.0769 112.149ZM28.4492 114.492L28.4786 114.179H28.4786L28.4492 114.492ZM28.5781 114.505L28.5462 114.817C28.6608 114.829 28.7726 114.777 28.8376 114.682C28.9026 114.587 28.9103 114.464 28.8576 114.361L28.5781 114.505ZM30.0667 115.651L29.8547 115.883C29.8645 115.892 29.8748 115.9 29.8856 115.908L30.0667 115.651ZM33.0749 118.155L33.357 118.017C33.3414 117.985 33.3205 117.956 33.2953 117.931L33.0749 118.155ZM33.4609 118.943L33.3159 119.221C33.4363 119.284 33.5833 119.262 33.6804 119.168C33.7775 119.073 33.8028 118.926 33.743 118.804L33.4609 118.943ZM26.3404 115.24L26.4853 114.962C26.4536 114.945 26.4193 114.934 26.3839 114.929L26.3404 115.24ZM24.5059 120.588L24.2157 120.709H24.2157L24.5059 120.588ZM27.1651 121.398L26.8998 121.229L26.8988 121.231L27.1651 121.398ZM27.1652 121.398L27.4305 121.566L27.4316 121.564L27.1652 121.398ZM27.1652 121.398L26.8989 121.231L26.8988 121.231L27.1652 121.398ZM27.2611 121.245L27.5262 121.414C27.5763 121.335 27.5888 121.238 27.5604 121.149C27.5319 121.06 27.4653 120.989 27.3788 120.954L27.2611 121.245ZM29.112 120.588L29.1765 120.896C29.1968 120.891 29.2167 120.885 29.2358 120.877L29.112 120.588ZM33.6806 119.391L33.9627 119.253C33.9065 119.138 33.7866 119.069 33.6592 119.077L33.6806 119.391ZM33.97 119.981L33.6878 120.12C33.7594 120.266 33.9308 120.333 34.0827 120.275C34.2346 120.216 34.3168 120.052 34.2721 119.895L33.97 119.981ZM33.7916 119.384L33.775 119.07C33.6782 119.076 33.5893 119.125 33.5338 119.204C33.4784 119.284 33.4628 119.385 33.4914 119.477L33.7916 119.384ZM34.2426 119.376L34.5517 119.319C34.5247 119.172 34.3978 119.064 34.2483 119.062L34.2426 119.376ZM34.321 119.803L34.0119 119.86C34.0406 120.016 34.1811 120.126 34.3396 120.117C34.498 120.107 34.6246 119.981 34.6346 119.823L34.321 119.803ZM35.7117 112.486L35.5893 112.196L35.7117 112.486ZM37.0362 113.496L36.7323 113.576C36.7574 113.671 36.8251 113.748 36.9155 113.786C37.006 113.823 37.1088 113.817 37.1936 113.768L37.0362 113.496ZM36.3484 109.749L36.1903 110.02L36.3484 109.749ZM34.6964 109.224L34.3932 109.142C34.3669 109.238 34.388 109.341 34.45 109.419C34.512 109.497 34.6074 109.542 34.7072 109.538L34.6964 109.224ZM32.2203 107.101L32.2986 106.796L32.2203 107.101ZM33.5589 118.653L33.7896 118.44C33.6893 118.332 33.5272 118.308 33.3999 118.382C33.2725 118.457 33.2144 118.61 33.2601 118.751L33.5589 118.653ZM33.9611 119.112L33.7188 119.312C33.8185 119.433 33.992 119.462 34.1256 119.38C34.2591 119.298 34.3118 119.13 34.2491 118.986L33.9611 119.112ZM32.8962 116.672L32.5985 116.772C32.6014 116.781 32.6046 116.789 32.6082 116.797L32.8962 116.672ZM31.4217 110.621L31.6731 110.809V110.809L31.4217 110.621ZM33.5011 109.899L33.7592 110.079C33.8507 109.947 33.8282 109.767 33.7071 109.662L33.5011 109.899ZM32.9456 112.31L32.6316 112.321C32.6321 112.336 32.6338 112.351 32.6365 112.366L32.9456 112.31ZM34.2372 119.346L34.0922 119.625C34.1987 119.681 34.3274 119.67 34.424 119.599C34.5205 119.528 34.5679 119.408 34.5463 119.29L34.2372 119.346ZM33.6905 119.062L33.391 119.157C33.4162 119.237 33.4718 119.303 33.5455 119.341L33.6905 119.062ZM32.8486 126.777L32.5349 126.758C32.5254 126.916 32.635 127.057 32.7905 127.086C32.9461 127.115 33.0991 127.024 33.1477 126.873L32.8486 126.777ZM34.7535 120.863L35.0675 120.876C35.0738 120.719 34.9631 120.581 34.8085 120.554C34.6538 120.526 34.5026 120.617 34.4544 120.767L34.7535 120.863ZM32.8073 126.326L33.111 126.246C33.0869 126.155 33.024 126.08 32.9393 126.041C32.8546 126.002 32.7568 126.003 32.6725 126.043L32.8073 126.326ZM30.1665 126.108L30.4585 125.992L30.1665 126.108ZM34.4019 120.334L34.6272 120.553C34.7367 120.441 34.7463 120.264 34.6495 120.141C34.5528 120.017 34.3795 119.984 34.2438 120.063L34.4019 120.334ZM28.0391 124.04L27.881 123.769C27.8664 123.777 27.8526 123.787 27.8395 123.798L28.0391 124.04ZM28.6664 128.36L28.7741 128.065L28.6664 128.36ZM32.5672 127.651L32.8663 127.747C32.9151 127.595 32.8428 127.431 32.698 127.365C32.5533 127.298 32.3817 127.351 32.2989 127.487L32.5672 127.651ZM32.4959 127.872L32.1968 127.776C32.1916 127.792 32.1878 127.808 32.1852 127.825L32.4959 127.872ZM35.849 130.667L35.732 130.375L35.849 130.667ZM36.978 127.162L37.1498 126.899C37.0716 126.848 36.9748 126.834 36.8856 126.862C36.7964 126.889 36.724 126.955 36.688 127.041L36.978 127.162ZM35.4605 127.989L35.3207 128.271L35.4605 127.989ZM29.7056 110.335C29.1616 110.116 28.5328 110.081 27.9752 110.356C27.4113 110.635 26.9765 111.203 26.771 112.077L27.3828 112.221C27.5564 111.482 27.8969 111.096 28.2536 110.92C28.6167 110.74 29.0539 110.75 29.4705 110.918L29.7056 110.335ZM26.771 112.077C26.5097 113.188 26.6188 113.9 27.0434 114.326C27.2489 114.532 27.5007 114.64 27.7393 114.702C27.9748 114.764 28.2201 114.786 28.4198 114.805L28.4786 114.179C28.27 114.16 28.0761 114.141 27.8982 114.094C27.7233 114.049 27.5876 113.982 27.4883 113.882C27.3035 113.697 27.1347 113.276 27.3828 112.221L26.771 112.077ZM28.4198 114.805C28.4638 114.809 28.5056 114.813 28.5462 114.817L28.61 114.192C28.5665 114.188 28.5221 114.183 28.4786 114.179L28.4198 114.805ZM28.8576 114.361C28.8557 114.357 28.8591 114.363 28.8632 114.376C28.8659 114.384 28.8789 114.425 28.8735 114.481C28.8668 114.55 28.8294 114.651 28.7243 114.712C28.6393 114.761 28.5611 114.752 28.5386 114.749C28.4921 114.743 28.4686 114.726 28.4888 114.737C28.4994 114.743 28.5182 114.754 28.5462 114.773C28.661 114.851 28.8423 114.997 29.0416 115.166C29.2377 115.332 29.441 115.511 29.5957 115.65C29.673 115.719 29.7379 115.777 29.7834 115.818C29.8062 115.839 29.8241 115.855 29.8362 115.866C29.8423 115.872 29.847 115.876 29.8501 115.879C29.8517 115.88 29.8528 115.881 29.8536 115.882C29.854 115.882 29.8543 115.883 29.8545 115.883C29.8545 115.883 29.8546 115.883 29.8547 115.883C29.8547 115.883 29.8547 115.883 29.8547 115.883C29.8547 115.883 29.8547 115.883 30.0667 115.651C30.2787 115.419 30.2787 115.419 30.2787 115.419C30.2787 115.419 30.2787 115.419 30.2786 115.419C30.2786 115.419 30.2785 115.419 30.2784 115.419C30.2781 115.419 30.2778 115.418 30.2774 115.418C30.2765 115.417 30.2753 115.416 30.2736 115.414C30.2703 115.411 30.2655 115.407 30.2592 115.401C30.2466 115.39 30.2283 115.373 30.2051 115.352C30.1587 115.31 30.0927 115.251 30.0142 115.181C29.8575 115.041 29.6497 114.858 29.4478 114.687C29.249 114.518 29.0452 114.353 28.9003 114.254C28.8634 114.229 28.8251 114.204 28.7882 114.184C28.7609 114.169 28.6996 114.137 28.6265 114.127C28.5908 114.122 28.5021 114.114 28.4098 114.168C28.2973 114.233 28.2555 114.341 28.2478 114.421C28.2414 114.488 28.2566 114.543 28.265 114.569C28.2749 114.599 28.2875 114.627 28.2985 114.648L28.8576 114.361ZM30.0667 115.651C29.8856 115.908 29.8856 115.908 29.8856 115.908C29.8856 115.908 29.8856 115.908 29.8856 115.908C29.8856 115.908 29.8856 115.908 29.8857 115.908C29.8859 115.908 29.8861 115.908 29.8865 115.908C29.8871 115.909 29.8882 115.91 29.8897 115.911C29.8926 115.913 29.8971 115.916 29.903 115.92C29.9149 115.929 29.9327 115.941 29.9559 115.958C30.0024 115.992 30.0707 116.041 30.1571 116.105C30.3299 116.233 30.5748 116.418 30.8622 116.644C31.438 117.098 32.1803 117.716 32.8545 118.379L33.2953 117.931C32.5984 117.245 31.8366 116.611 31.2511 116.15C30.9579 115.919 30.7078 115.731 30.5308 115.6C30.4423 115.534 30.3719 115.483 30.3235 115.448C30.2994 115.431 30.2806 115.418 30.2679 115.409C30.2615 115.404 30.2566 115.4 30.2532 115.398C30.2516 115.397 30.2503 115.396 30.2494 115.395C30.2489 115.395 30.2486 115.395 30.2483 115.395C30.2482 115.395 30.2481 115.394 30.248 115.394C30.248 115.394 30.2479 115.394 30.2479 115.394C30.2479 115.394 30.2479 115.394 30.0667 115.651ZM32.7927 118.294L33.1787 119.081L33.743 118.804L33.357 118.017L32.7927 118.294ZM33.6058 118.664L26.4853 114.962L26.1954 115.519L33.3159 119.221L33.6058 118.664ZM26.3839 114.929C25.4577 114.8 24.5596 115.472 24.0866 116.505C23.6046 117.557 23.522 119.038 24.2157 120.709L24.7961 120.468C24.16 118.936 24.2584 117.639 24.658 116.767C25.0665 115.875 25.7506 115.475 26.2968 115.552L26.3839 114.929ZM24.2157 120.709C24.5361 121.48 24.8382 122.009 25.1337 122.342C25.4319 122.677 25.7633 122.854 26.1225 122.807C26.4564 122.763 26.7167 122.535 26.909 122.312C27.107 122.084 27.283 121.801 27.4314 121.564L26.8988 121.231C26.7443 121.478 26.5941 121.716 26.4338 121.901C26.268 122.093 26.138 122.171 26.0406 122.184C25.9685 122.194 25.8277 122.177 25.6036 121.924C25.3769 121.669 25.1068 121.216 24.7961 120.468L24.2157 120.709ZM27.4304 121.566L27.4305 121.566L26.8998 121.229L26.8998 121.229L27.4304 121.566ZM27.4316 121.564L27.4317 121.564L26.8988 121.231L26.8987 121.231L27.4316 121.564ZM27.4315 121.564C27.4641 121.512 27.4955 121.462 27.5262 121.414L26.996 121.077C26.9638 121.127 26.9313 121.179 26.8989 121.231L27.4315 121.564ZM27.3788 120.954C27.3804 120.955 27.3932 120.96 27.4107 120.972C27.4279 120.984 27.4593 121.011 27.4846 121.057C27.5523 121.179 27.5076 121.295 27.4739 121.344C27.4488 121.38 27.4256 121.392 27.4394 121.383C27.4476 121.378 27.4653 121.368 27.4959 121.354C27.6235 121.295 27.8466 121.224 28.1053 121.153C28.3581 121.084 28.6259 121.019 28.8315 120.972C28.9341 120.949 29.0207 120.929 29.0815 120.916C29.1118 120.909 29.1358 120.904 29.152 120.901C29.1602 120.899 29.1664 120.898 29.1705 120.897C29.1725 120.896 29.1741 120.896 29.1751 120.896C29.1756 120.896 29.176 120.896 29.1762 120.896C29.1763 120.896 29.1764 120.896 29.1764 120.896C29.1765 120.896 29.1765 120.896 29.1765 120.896C29.1765 120.896 29.1765 120.896 29.112 120.588C29.0475 120.281 29.0475 120.281 29.0475 120.281C29.0474 120.281 29.0474 120.281 29.0473 120.281C29.0472 120.281 29.0471 120.281 29.047 120.281C29.0466 120.281 29.0462 120.281 29.0456 120.281C29.0444 120.281 29.0427 120.282 29.0404 120.282C29.0359 120.283 29.0293 120.284 29.0207 120.286C29.0037 120.29 28.9788 120.295 28.9475 120.302C28.8848 120.316 28.7959 120.335 28.6907 120.36C28.4808 120.408 28.2036 120.475 27.9389 120.547C27.68 120.618 27.413 120.701 27.2347 120.782C27.1888 120.803 27.1415 120.827 27.0988 120.855C27.0616 120.879 27.0013 120.922 26.9556 120.988C26.9012 121.068 26.8523 121.212 26.9346 121.361C26.9959 121.471 27.0981 121.518 27.1434 121.537L27.3788 120.954ZM29.112 120.588C29.2358 120.877 29.2358 120.877 29.2358 120.877C29.2358 120.877 29.2358 120.877 29.2358 120.877C29.2358 120.877 29.2359 120.877 29.236 120.877C29.2362 120.877 29.2365 120.877 29.237 120.876C29.238 120.876 29.2396 120.875 29.2417 120.874C29.246 120.873 29.2526 120.87 29.2615 120.866C29.2791 120.859 29.3057 120.848 29.3404 120.834C29.4098 120.805 29.512 120.764 29.6414 120.715C29.9004 120.615 30.2679 120.481 30.7003 120.343C31.5693 120.064 32.6834 119.774 33.7019 119.704L33.6592 119.077C32.5661 119.152 31.3959 119.46 30.5085 119.744C30.0628 119.887 29.684 120.025 29.4163 120.128C29.2824 120.179 29.1762 120.222 29.103 120.252C29.0664 120.267 29.0381 120.278 29.0187 120.286C29.009 120.29 29.0016 120.294 28.9965 120.296C28.9939 120.297 28.9919 120.298 28.9905 120.298C28.9898 120.299 28.9893 120.299 28.9889 120.299C28.9887 120.299 28.9885 120.299 28.9884 120.299C28.9884 120.299 28.9883 120.299 28.9883 120.299C28.9882 120.299 28.9882 120.299 29.112 120.588ZM33.3984 119.529L33.6878 120.12L34.2521 119.843L33.9627 119.253L33.3984 119.529ZM34.2721 119.895C34.218 119.705 34.1574 119.503 34.0918 119.291L33.4914 119.477C33.556 119.686 33.6152 119.883 33.6678 120.068L34.2721 119.895ZM33.8082 119.698C33.9544 119.69 34.0976 119.687 34.2369 119.69L34.2483 119.062C34.0926 119.059 33.9344 119.062 33.775 119.07L33.8082 119.698ZM33.9335 119.432L34.0119 119.86L34.6301 119.746L34.5517 119.319L33.9335 119.432ZM34.6346 119.823C34.7075 118.676 34.8641 116.938 35.0964 115.449C35.2127 114.704 35.3465 114.031 35.4952 113.53C35.5698 113.279 35.6448 113.082 35.7174 112.945C35.7979 112.792 35.8455 112.77 35.8341 112.775L35.5893 112.196C35.3876 112.282 35.2537 112.477 35.1616 112.651C35.0615 112.841 34.9727 113.082 34.8927 113.351C34.7322 113.892 34.5933 114.597 34.4754 115.352C34.2392 116.866 34.081 118.625 34.0074 119.783L34.6346 119.823ZM35.8341 112.775C35.9639 112.72 36.0604 112.722 36.1361 112.744C36.2171 112.767 36.3006 112.821 36.384 112.909C36.5562 113.092 36.678 113.37 36.7323 113.576L37.34 113.415C37.2699 113.15 37.11 112.763 36.8413 112.478C36.7043 112.333 36.5276 112.202 36.3084 112.139C36.0838 112.075 35.8401 112.09 35.5893 112.196L35.8341 112.775ZM37.1936 113.768C37.7088 113.469 38.3569 112.876 38.4367 112.068C38.52 111.223 37.9724 110.33 36.5065 109.477L36.1903 110.02C37.5811 110.83 37.858 111.532 37.8112 112.006C37.7609 112.517 37.3245 112.966 36.8787 113.224L37.1936 113.768ZM36.5065 109.477C35.8101 109.072 35.2069 108.892 34.6856 108.91L34.7072 109.538C35.0687 109.526 35.5533 109.649 36.1903 110.02L36.5065 109.477ZM34.9996 109.307C35.0614 109.08 35.0819 108.835 35.0234 108.585C34.9644 108.333 34.8302 108.096 34.615 107.878C34.1948 107.454 33.4564 107.094 32.2986 106.796L32.1421 107.405C33.2674 107.695 33.87 108.019 34.1684 108.32C34.3125 108.466 34.3821 108.602 34.4114 108.728C34.4411 108.854 34.4342 108.991 34.3932 109.142L34.9996 109.307ZM32.2986 106.796C31.7205 106.648 31.2062 106.688 30.7682 106.885C30.333 107.08 30.0004 107.419 29.7599 107.822C29.2838 108.62 29.1419 109.712 29.2768 110.67L29.8992 110.583C29.7787 109.727 29.9148 108.789 30.2996 108.144C30.4895 107.826 30.7331 107.59 31.026 107.458C31.3161 107.327 31.6819 107.287 32.1421 107.405L32.2986 106.796ZM33.3282 118.867C33.4657 119.015 33.5967 119.164 33.7188 119.312L34.2034 118.912C34.0728 118.754 33.934 118.596 33.7896 118.44L33.3282 118.867ZM34.2491 118.986L33.1842 116.546L32.6082 116.797L33.6731 119.238L34.2491 118.986ZM33.1939 116.571C32.7424 115.234 32.281 113.859 31.98 112.754C31.8293 112.201 31.7219 111.727 31.6749 111.366C31.6513 111.185 31.6444 111.043 31.6513 110.939C31.6589 110.826 31.6804 110.799 31.6731 110.809L31.1703 110.432C31.067 110.57 31.0344 110.745 31.0243 110.897C31.0135 111.059 31.0254 111.246 31.0517 111.447C31.1043 111.851 31.2205 112.358 31.3737 112.92C31.6805 114.045 32.1485 115.44 32.5985 116.772L33.1939 116.571ZM31.6731 110.809C32.1254 110.206 32.4746 110 32.7113 109.951C32.9297 109.906 33.1173 109.982 33.2951 110.137L33.7071 109.662C33.4383 109.429 33.0578 109.237 32.584 109.335C32.1283 109.43 31.661 109.778 31.1703 110.432L31.6731 110.809ZM33.2429 109.72C32.7281 110.462 32.6037 111.553 32.6316 112.321L33.2596 112.298C33.2335 111.577 33.3605 110.653 33.7592 110.079L33.2429 109.72ZM32.6365 112.366L33.9281 119.403L34.5463 119.29L33.2547 112.253L32.6365 112.366ZM34.3822 119.068L33.8355 118.783L33.5455 119.341L34.0922 119.625L34.3822 119.068ZM33.99 118.967C33.9474 118.833 33.9032 118.696 33.8577 118.556L33.2601 118.751C33.3053 118.889 33.349 119.025 33.391 119.157L33.99 118.967ZM33.1477 126.873L35.0526 120.959L34.4544 120.767L32.5495 126.681L33.1477 126.873ZM32.5037 126.407C32.5308 126.509 32.5427 126.628 32.5349 126.758L33.1622 126.796C33.1736 126.606 33.1573 126.419 33.111 126.246L32.5037 126.407ZM29.8744 126.224C30.0016 126.545 30.2776 126.72 30.5574 126.81C30.8357 126.9 31.1569 126.921 31.4582 126.91C32.0546 126.888 32.6796 126.735 32.9421 126.61L32.6725 126.043C32.5079 126.121 31.9724 126.262 31.4351 126.282C31.1697 126.291 30.9307 126.27 30.7506 126.212C30.572 126.154 30.4913 126.075 30.4585 125.992L29.8744 126.224ZM34.1767 120.115C33.3996 120.914 32.2529 122.165 31.3384 123.32C30.8821 123.896 30.4764 124.458 30.2035 124.933C30.0675 125.17 29.958 125.396 29.8937 125.599C29.8333 125.79 29.793 126.019 29.8744 126.224L30.4585 125.992C30.46 125.996 30.4437 125.944 30.4928 125.789C30.5379 125.647 30.6231 125.464 30.7485 125.246C30.9984 124.811 31.3818 124.278 31.8312 123.71C32.7281 122.577 33.8591 121.343 34.6272 120.553L34.1767 120.115ZM28.1973 124.312L34.5601 120.606L34.2438 120.063L27.881 123.769L28.1973 124.312ZM28.7741 128.065C27.992 127.779 27.5329 127.447 27.2805 127.123C27.0348 126.808 26.9687 126.479 27.012 126.149C27.1032 125.455 27.6851 124.738 28.2388 124.283L27.8395 123.798C27.2448 124.287 26.5115 125.135 26.3889 126.067C26.3254 126.551 26.4278 127.051 26.7845 127.509C27.1346 127.959 27.7119 128.346 28.5586 128.655L28.7741 128.065ZM32.2989 127.487C32.0816 127.843 31.7082 128.165 31.1456 128.313C30.5799 128.461 29.801 128.44 28.7741 128.065L28.5586 128.655C29.6719 129.062 30.5849 129.11 31.3053 128.92C32.0288 128.73 32.5356 128.306 32.8355 127.814L32.2989 127.487ZM32.795 127.968L32.8663 127.747L32.2681 127.554L32.1968 127.776L32.795 127.968ZM35.732 130.375C34.9593 130.685 34.3959 130.745 33.9914 130.673C33.5978 130.602 33.3291 130.402 33.141 130.127C32.7452 129.55 32.6989 128.628 32.8066 127.919L32.1852 127.825C32.0696 128.586 32.0907 129.707 32.6227 130.483C32.8985 130.885 33.3088 131.189 33.8804 131.291C34.4413 131.392 35.1296 131.294 35.9661 130.958L35.732 130.375ZM36.8062 127.425C37.023 127.567 37.2445 127.76 37.4088 127.981C37.5734 128.203 37.6681 128.436 37.668 128.666C37.6676 129.096 37.3167 129.739 35.732 130.375L35.9661 130.958C37.5998 130.303 38.2957 129.509 38.2964 128.666C38.2968 128.261 38.1306 127.899 37.9135 127.607C37.6962 127.314 37.4153 127.072 37.1498 126.899L36.8062 127.425ZM35.3207 128.271C35.8399 128.528 36.3018 128.389 36.6342 128.133C36.9499 127.889 37.1632 127.534 37.2679 127.283L36.688 127.041C36.6104 127.227 36.4533 127.478 36.25 127.635C36.0634 127.779 35.8576 127.836 35.6003 127.708L35.3207 128.271ZM34.4396 120.851C34.3954 121.964 34.3777 123.661 34.4693 125.131C34.515 125.865 34.5885 126.554 34.7028 127.09C34.7598 127.357 34.8295 127.599 34.9173 127.793C34.9997 127.975 35.1231 128.172 35.3207 128.271L35.6003 127.708C35.6038 127.709 35.5568 127.681 35.4899 127.534C35.4284 127.398 35.37 127.205 35.3174 126.959C35.2127 126.468 35.1415 125.815 35.0965 125.092C35.0067 123.65 35.0239 121.976 35.0675 120.876L34.4396 120.851Z" fill="#7B7BD7"/>
<path d="M29.588 110.627L29.4705 110.918C29.5746 110.96 29.6931 110.943 29.7816 110.874C29.87 110.805 29.9148 110.694 29.8992 110.583L29.588 110.627ZM27.0769 112.149L27.3828 112.221L27.0769 112.149ZM28.4492 114.492L28.4786 114.179H28.4786L28.4492 114.492ZM28.5781 114.505L28.5462 114.817C28.6608 114.829 28.7726 114.777 28.8376 114.682C28.9026 114.587 28.9103 114.464 28.8576 114.361L28.5781 114.505ZM30.0667 115.651L29.8547 115.883C29.8645 115.892 29.8748 115.9 29.8856 115.908L30.0667 115.651ZM33.0749 118.155L33.357 118.017C33.3414 117.985 33.3205 117.956 33.2953 117.931L33.0749 118.155ZM33.4609 118.943L33.3159 119.221C33.4363 119.284 33.5833 119.262 33.6804 119.168C33.7775 119.073 33.8028 118.926 33.743 118.804L33.4609 118.943ZM26.3404 115.24L26.4853 114.962C26.4536 114.945 26.4193 114.934 26.3839 114.929L26.3404 115.24ZM24.5059 120.588L24.2157 120.709H24.2157L24.5059 120.588ZM27.1651 121.398L26.8998 121.229L26.8988 121.231L27.1651 121.398ZM27.1652 121.398L27.4305 121.566L27.4316 121.564L27.1652 121.398ZM27.1652 121.398L26.8989 121.231L26.8988 121.231L27.1652 121.398ZM27.2611 121.245L27.5262 121.414C27.5763 121.335 27.5888 121.238 27.5604 121.149C27.5319 121.06 27.4653 120.989 27.3788 120.954L27.2611 121.245ZM29.112 120.588L29.1765 120.896C29.1968 120.891 29.2167 120.885 29.2358 120.877L29.112 120.588ZM33.6806 119.391L33.9627 119.253C33.9065 119.138 33.7866 119.069 33.6592 119.077L33.6806 119.391ZM33.97 119.981L33.6878 120.12C33.7594 120.266 33.9308 120.333 34.0827 120.275C34.2346 120.216 34.3168 120.052 34.2721 119.895L33.97 119.981ZM33.7916 119.384L33.775 119.07C33.6782 119.076 33.5893 119.125 33.5338 119.204C33.4784 119.284 33.4628 119.385 33.4914 119.477L33.7916 119.384ZM34.2426 119.376L34.5517 119.319C34.5247 119.172 34.3978 119.064 34.2483 119.062L34.2426 119.376ZM34.321 119.803L34.0119 119.86C34.0406 120.016 34.1811 120.126 34.3396 120.117C34.498 120.107 34.6246 119.981 34.6346 119.823L34.321 119.803ZM35.7117 112.486L35.5893 112.196L35.7117 112.486ZM37.0362 113.496L36.7323 113.576C36.7574 113.671 36.8251 113.748 36.9155 113.786C37.006 113.823 37.1088 113.817 37.1936 113.768L37.0362 113.496ZM36.3484 109.749L36.1903 110.02L36.3484 109.749ZM34.6964 109.224L34.3932 109.142C34.3669 109.238 34.388 109.341 34.45 109.419C34.512 109.497 34.6074 109.542 34.7072 109.538L34.6964 109.224ZM32.2203 107.101L32.2986 106.796L32.2203 107.101ZM33.5589 118.653L33.7896 118.44C33.6893 118.332 33.5272 118.308 33.3999 118.382C33.2725 118.457 33.2144 118.61 33.2601 118.751L33.5589 118.653ZM33.9611 119.112L33.7188 119.312C33.8185 119.433 33.992 119.462 34.1256 119.38C34.2591 119.298 34.3118 119.13 34.2491 118.986L33.9611 119.112ZM32.8962 116.672L32.5985 116.772C32.6014 116.781 32.6046 116.789 32.6082 116.797L32.8962 116.672ZM31.4217 110.621L31.6731 110.809V110.809L31.4217 110.621ZM33.5011 109.899L33.7592 110.079C33.8507 109.947 33.8282 109.767 33.7071 109.662L33.5011 109.899ZM32.9456 112.31L32.6316 112.321C32.6321 112.336 32.6338 112.351 32.6365 112.366L32.9456 112.31ZM34.2372 119.346L34.0922 119.625C34.1987 119.681 34.3274 119.67 34.424 119.599C34.5205 119.528 34.5679 119.408 34.5463 119.29L34.2372 119.346ZM33.6905 119.062L33.391 119.157C33.4162 119.237 33.4718 119.303 33.5455 119.341L33.6905 119.062ZM32.8486 126.777L32.5349 126.758C32.5254 126.916 32.635 127.057 32.7905 127.086C32.9461 127.115 33.0991 127.024 33.1477 126.873L32.8486 126.777ZM34.7535 120.863L35.0675 120.876C35.0738 120.719 34.9631 120.581 34.8085 120.554C34.6538 120.526 34.5026 120.617 34.4544 120.767L34.7535 120.863ZM32.8073 126.326L33.111 126.246C33.0869 126.155 33.024 126.08 32.9393 126.041C32.8546 126.002 32.7568 126.003 32.6725 126.043L32.8073 126.326ZM30.1665 126.108L30.4585 125.992L30.1665 126.108ZM34.4019 120.334L34.6272 120.553C34.7367 120.441 34.7463 120.264 34.6495 120.141C34.5528 120.017 34.3795 119.984 34.2438 120.063L34.4019 120.334ZM28.0391 124.04L27.881 123.769C27.8664 123.777 27.8526 123.787 27.8395 123.798L28.0391 124.04ZM28.6664 128.36L28.7741 128.065L28.6664 128.36ZM32.5672 127.651L32.8663 127.747C32.9151 127.595 32.8428 127.431 32.698 127.365C32.5533 127.298 32.3817 127.351 32.2989 127.487L32.5672 127.651ZM32.4959 127.872L32.1968 127.776C32.1916 127.792 32.1878 127.808 32.1852 127.825L32.4959 127.872ZM35.849 130.667L35.732 130.375L35.849 130.667ZM36.978 127.162L37.1498 126.899C37.0716 126.848 36.9748 126.834 36.8856 126.862C36.7964 126.889 36.724 126.955 36.688 127.041L36.978 127.162ZM35.4605 127.989L35.3207 128.271L35.4605 127.989ZM29.7056 110.335C29.1616 110.116 28.5328 110.081 27.9752 110.356C27.4113 110.635 26.9765 111.203 26.771 112.077L27.3828 112.221C27.5564 111.482 27.8969 111.096 28.2536 110.92C28.6167 110.74 29.0539 110.75 29.4705 110.918L29.7056 110.335ZM26.771 112.077C26.5097 113.188 26.6188 113.9 27.0434 114.326C27.2489 114.532 27.5007 114.64 27.7393 114.702C27.9748 114.764 28.2201 114.786 28.4198 114.805L28.4786 114.179C28.27 114.16 28.0761 114.141 27.8982 114.094C27.7233 114.049 27.5876 113.982 27.4883 113.882C27.3035 113.697 27.1347 113.276 27.3828 112.221L26.771 112.077ZM28.4198 114.805C28.4638 114.809 28.5056 114.813 28.5462 114.817L28.61 114.192C28.5665 114.188 28.5221 114.183 28.4786 114.179L28.4198 114.805ZM28.8576 114.361C28.8557 114.357 28.8591 114.363 28.8632 114.376C28.8659 114.384 28.8789 114.425 28.8735 114.481C28.8668 114.55 28.8294 114.651 28.7243 114.712C28.6393 114.761 28.5611 114.752 28.5386 114.749C28.4921 114.743 28.4686 114.726 28.4888 114.737C28.4994 114.743 28.5182 114.754 28.5462 114.773C28.661 114.851 28.8423 114.997 29.0416 115.166C29.2377 115.332 29.441 115.511 29.5957 115.65C29.673 115.719 29.7379 115.777 29.7834 115.818C29.8062 115.839 29.8241 115.855 29.8362 115.866C29.8423 115.872 29.847 115.876 29.8501 115.879C29.8517 115.88 29.8528 115.881 29.8536 115.882C29.854 115.882 29.8543 115.883 29.8545 115.883C29.8545 115.883 29.8546 115.883 29.8547 115.883C29.8547 115.883 29.8547 115.883 29.8547 115.883C29.8547 115.883 29.8547 115.883 30.0667 115.651C30.2787 115.419 30.2787 115.419 30.2787 115.419C30.2787 115.419 30.2787 115.419 30.2786 115.419C30.2786 115.419 30.2785 115.419 30.2784 115.419C30.2781 115.419 30.2778 115.418 30.2774 115.418C30.2765 115.417 30.2753 115.416 30.2736 115.414C30.2703 115.411 30.2655 115.407 30.2592 115.401C30.2466 115.39 30.2283 115.373 30.2051 115.352C30.1587 115.31 30.0927 115.251 30.0142 115.181C29.8575 115.041 29.6497 114.858 29.4478 114.687C29.249 114.518 29.0452 114.353 28.9003 114.254C28.8634 114.229 28.8251 114.204 28.7882 114.184C28.7609 114.169 28.6996 114.137 28.6265 114.127C28.5908 114.122 28.5021 114.114 28.4098 114.168C28.2973 114.233 28.2555 114.341 28.2478 114.421C28.2414 114.488 28.2566 114.543 28.265 114.569C28.2749 114.599 28.2875 114.627 28.2985 114.648L28.8576 114.361ZM30.0667 115.651C29.8856 115.908 29.8856 115.908 29.8856 115.908C29.8856 115.908 29.8856 115.908 29.8856 115.908C29.8856 115.908 29.8856 115.908 29.8857 115.908C29.8859 115.908 29.8861 115.908 29.8865 115.908C29.8871 115.909 29.8882 115.91 29.8897 115.911C29.8926 115.913 29.8971 115.916 29.903 115.92C29.9149 115.929 29.9327 115.941 29.9559 115.958C30.0024 115.992 30.0707 116.041 30.1571 116.105C30.3299 116.233 30.5748 116.418 30.8622 116.644C31.438 117.098 32.1803 117.716 32.8545 118.379L33.2953 117.931C32.5984 117.245 31.8366 116.611 31.2511 116.15C30.9579 115.919 30.7078 115.731 30.5308 115.6C30.4423 115.534 30.3719 115.483 30.3235 115.448C30.2994 115.431 30.2806 115.418 30.2679 115.409C30.2615 115.404 30.2566 115.4 30.2532 115.398C30.2516 115.397 30.2503 115.396 30.2494 115.395C30.2489 115.395 30.2486 115.395 30.2483 115.395C30.2482 115.395 30.2481 115.394 30.248 115.394C30.248 115.394 30.2479 115.394 30.2479 115.394C30.2479 115.394 30.2479 115.394 30.0667 115.651ZM32.7927 118.294L33.1787 119.081L33.743 118.804L33.357 118.017L32.7927 118.294ZM33.6058 118.664L26.4853 114.962L26.1954 115.519L33.3159 119.221L33.6058 118.664ZM26.3839 114.929C25.4577 114.8 24.5596 115.472 24.0866 116.505C23.6046 117.557 23.522 119.038 24.2157 120.709L24.7961 120.468C24.16 118.936 24.2584 117.639 24.658 116.767C25.0665 115.875 25.7506 115.475 26.2968 115.552L26.3839 114.929ZM24.2157 120.709C24.5361 121.48 24.8382 122.009 25.1337 122.342C25.4319 122.677 25.7633 122.854 26.1225 122.807C26.4564 122.763 26.7167 122.535 26.909 122.312C27.107 122.084 27.283 121.801 27.4314 121.564L26.8988 121.231C26.7443 121.478 26.5941 121.716 26.4338 121.901C26.268 122.093 26.138 122.171 26.0406 122.184C25.9685 122.194 25.8277 122.177 25.6036 121.924C25.3769 121.669 25.1068 121.216 24.7961 120.468L24.2157 120.709ZM27.4304 121.566L27.4305 121.566L26.8998 121.229L26.8998 121.229L27.4304 121.566ZM27.4316 121.564L27.4317 121.564L26.8988 121.231L26.8987 121.231L27.4316 121.564ZM27.4315 121.564C27.4641 121.512 27.4955 121.462 27.5262 121.414L26.996 121.077C26.9638 121.127 26.9313 121.179 26.8989 121.231L27.4315 121.564ZM27.3788 120.954C27.3804 120.955 27.3932 120.96 27.4107 120.972C27.4279 120.984 27.4593 121.011 27.4846 121.057C27.5523 121.179 27.5076 121.295 27.4739 121.344C27.4488 121.38 27.4256 121.392 27.4394 121.383C27.4476 121.378 27.4653 121.368 27.4959 121.354C27.6235 121.295 27.8466 121.224 28.1053 121.153C28.3581 121.084 28.6259 121.019 28.8315 120.972C28.9341 120.949 29.0207 120.929 29.0815 120.916C29.1118 120.909 29.1358 120.904 29.152 120.901C29.1602 120.899 29.1664 120.898 29.1705 120.897C29.1725 120.896 29.1741 120.896 29.1751 120.896C29.1756 120.896 29.176 120.896 29.1762 120.896C29.1763 120.896 29.1764 120.896 29.1764 120.896C29.1765 120.896 29.1765 120.896 29.1765 120.896C29.1765 120.896 29.1765 120.896 29.112 120.588C29.0475 120.281 29.0475 120.281 29.0475 120.281C29.0474 120.281 29.0474 120.281 29.0473 120.281C29.0472 120.281 29.0471 120.281 29.047 120.281C29.0466 120.281 29.0462 120.281 29.0456 120.281C29.0444 120.281 29.0427 120.282 29.0404 120.282C29.0359 120.283 29.0293 120.284 29.0207 120.286C29.0037 120.29 28.9788 120.295 28.9475 120.302C28.8848 120.316 28.7959 120.335 28.6907 120.36C28.4808 120.408 28.2036 120.475 27.9389 120.547C27.68 120.618 27.413 120.701 27.2347 120.782C27.1888 120.803 27.1415 120.827 27.0988 120.855C27.0616 120.879 27.0013 120.922 26.9556 120.988C26.9012 121.068 26.8523 121.212 26.9346 121.361C26.9959 121.471 27.0981 121.518 27.1434 121.537L27.3788 120.954ZM29.112 120.588C29.2358 120.877 29.2358 120.877 29.2358 120.877C29.2358 120.877 29.2358 120.877 29.2358 120.877C29.2358 120.877 29.2359 120.877 29.236 120.877C29.2362 120.877 29.2365 120.877 29.237 120.876C29.238 120.876 29.2396 120.875 29.2417 120.874C29.246 120.873 29.2526 120.87 29.2615 120.866C29.2791 120.859 29.3057 120.848 29.3404 120.834C29.4098 120.805 29.512 120.764 29.6414 120.715C29.9004 120.615 30.2679 120.481 30.7003 120.343C31.5693 120.064 32.6834 119.774 33.7019 119.704L33.6592 119.077C32.5661 119.152 31.3959 119.46 30.5085 119.744C30.0628 119.887 29.684 120.025 29.4163 120.128C29.2824 120.179 29.1762 120.222 29.103 120.252C29.0664 120.267 29.0381 120.278 29.0187 120.286C29.009 120.29 29.0016 120.294 28.9965 120.296C28.9939 120.297 28.9919 120.298 28.9905 120.298C28.9898 120.299 28.9893 120.299 28.9889 120.299C28.9887 120.299 28.9885 120.299 28.9884 120.299C28.9884 120.299 28.9883 120.299 28.9883 120.299C28.9882 120.299 28.9882 120.299 29.112 120.588ZM33.3984 119.529L33.6878 120.12L34.2521 119.843L33.9627 119.253L33.3984 119.529ZM34.2721 119.895C34.218 119.705 34.1574 119.503 34.0918 119.291L33.4914 119.477C33.556 119.686 33.6152 119.883 33.6678 120.068L34.2721 119.895ZM33.8082 119.698C33.9544 119.69 34.0976 119.687 34.2369 119.69L34.2483 119.062C34.0926 119.059 33.9344 119.062 33.775 119.07L33.8082 119.698ZM33.9335 119.432L34.0119 119.86L34.6301 119.746L34.5517 119.319L33.9335 119.432ZM34.6346 119.823C34.7075 118.676 34.8641 116.938 35.0964 115.449C35.2127 114.704 35.3465 114.031 35.4952 113.53C35.5698 113.279 35.6448 113.082 35.7174 112.945C35.7979 112.792 35.8455 112.77 35.8341 112.775L35.5893 112.196C35.3876 112.282 35.2537 112.477 35.1616 112.651C35.0615 112.841 34.9727 113.082 34.8927 113.351C34.7322 113.892 34.5933 114.597 34.4754 115.352C34.2392 116.866 34.081 118.625 34.0074 119.783L34.6346 119.823ZM35.8341 112.775C35.9639 112.72 36.0604 112.722 36.1361 112.744C36.2171 112.767 36.3006 112.821 36.384 112.909C36.5562 113.092 36.678 113.37 36.7323 113.576L37.34 113.415C37.2699 113.15 37.11 112.763 36.8413 112.478C36.7043 112.333 36.5276 112.202 36.3084 112.139C36.0838 112.075 35.8401 112.09 35.5893 112.196L35.8341 112.775ZM37.1936 113.768C37.7088 113.469 38.3569 112.876 38.4367 112.068C38.52 111.223 37.9724 110.33 36.5065 109.477L36.1903 110.02C37.5811 110.83 37.858 111.532 37.8112 112.006C37.7609 112.517 37.3245 112.966 36.8787 113.224L37.1936 113.768ZM36.5065 109.477C35.8101 109.072 35.2069 108.892 34.6856 108.91L34.7072 109.538C35.0687 109.526 35.5533 109.649 36.1903 110.02L36.5065 109.477ZM34.9996 109.307C35.0614 109.08 35.0819 108.835 35.0234 108.585C34.9644 108.333 34.8302 108.096 34.615 107.878C34.1948 107.454 33.4564 107.094 32.2986 106.796L32.1421 107.405C33.2674 107.695 33.87 108.019 34.1684 108.32C34.3125 108.466 34.3821 108.602 34.4114 108.728C34.4411 108.854 34.4342 108.991 34.3932 109.142L34.9996 109.307ZM32.2986 106.796C31.7205 106.648 31.2062 106.688 30.7682 106.885C30.333 107.08 30.0004 107.419 29.7599 107.822C29.2838 108.62 29.1419 109.712 29.2768 110.67L29.8992 110.583C29.7787 109.727 29.9148 108.789 30.2996 108.144C30.4895 107.826 30.7331 107.59 31.026 107.458C31.3161 107.327 31.6819 107.287 32.1421 107.405L32.2986 106.796ZM33.3282 118.867C33.4657 119.015 33.5967 119.164 33.7188 119.312L34.2034 118.912C34.0728 118.754 33.934 118.596 33.7896 118.44L33.3282 118.867ZM34.2491 118.986L33.1842 116.546L32.6082 116.797L33.6731 119.238L34.2491 118.986ZM33.1939 116.571C32.7424 115.234 32.281 113.859 31.98 112.754C31.8293 112.201 31.7219 111.727 31.6749 111.366C31.6513 111.185 31.6444 111.043 31.6513 110.939C31.6589 110.826 31.6804 110.799 31.6731 110.809L31.1703 110.432C31.067 110.57 31.0344 110.745 31.0243 110.897C31.0135 111.059 31.0254 111.246 31.0517 111.447C31.1043 111.851 31.2205 112.358 31.3737 112.92C31.6805 114.045 32.1485 115.44 32.5985 116.772L33.1939 116.571ZM31.6731 110.809C32.1254 110.206 32.4746 110 32.7113 109.951C32.9297 109.906 33.1173 109.982 33.2951 110.137L33.7071 109.662C33.4383 109.429 33.0578 109.237 32.584 109.335C32.1283 109.43 31.661 109.778 31.1703 110.432L31.6731 110.809ZM33.2429 109.72C32.7281 110.462 32.6037 111.553 32.6316 112.321L33.2596 112.298C33.2335 111.577 33.3605 110.653 33.7592 110.079L33.2429 109.72ZM32.6365 112.366L33.9281 119.403L34.5463 119.29L33.2547 112.253L32.6365 112.366ZM34.3822 119.068L33.8355 118.783L33.5455 119.341L34.0922 119.625L34.3822 119.068ZM33.99 118.967C33.9474 118.833 33.9032 118.696 33.8577 118.556L33.2601 118.751C33.3053 118.889 33.349 119.025 33.391 119.157L33.99 118.967ZM33.1477 126.873L35.0526 120.959L34.4544 120.767L32.5495 126.681L33.1477 126.873ZM32.5037 126.407C32.5308 126.509 32.5427 126.628 32.5349 126.758L33.1622 126.796C33.1736 126.606 33.1573 126.419 33.111 126.246L32.5037 126.407ZM29.8744 126.224C30.0016 126.545 30.2776 126.72 30.5574 126.81C30.8357 126.9 31.1569 126.921 31.4582 126.91C32.0546 126.888 32.6796 126.735 32.9421 126.61L32.6725 126.043C32.5079 126.121 31.9724 126.262 31.4351 126.282C31.1697 126.291 30.9307 126.27 30.7506 126.212C30.572 126.154 30.4913 126.075 30.4585 125.992L29.8744 126.224ZM34.1767 120.115C33.3996 120.914 32.2529 122.165 31.3384 123.32C30.8821 123.896 30.4764 124.458 30.2035 124.933C30.0675 125.17 29.958 125.396 29.8937 125.599C29.8333 125.79 29.793 126.019 29.8744 126.224L30.4585 125.992C30.46 125.996 30.4437 125.944 30.4928 125.789C30.5379 125.647 30.6231 125.464 30.7485 125.246C30.9984 124.811 31.3818 124.278 31.8312 123.71C32.7281 122.577 33.8591 121.343 34.6272 120.553L34.1767 120.115ZM28.1973 124.312L34.5601 120.606L34.2438 120.063L27.881 123.769L28.1973 124.312ZM28.7741 128.065C27.992 127.779 27.5329 127.447 27.2805 127.123C27.0348 126.808 26.9687 126.479 27.012 126.149C27.1032 125.455 27.6851 124.738 28.2388 124.283L27.8395 123.798C27.2448 124.287 26.5115 125.135 26.3889 126.067C26.3254 126.551 26.4278 127.051 26.7845 127.509C27.1346 127.959 27.7119 128.346 28.5586 128.655L28.7741 128.065ZM32.2989 127.487C32.0816 127.843 31.7082 128.165 31.1456 128.313C30.5799 128.461 29.801 128.44 28.7741 128.065L28.5586 128.655C29.6719 129.062 30.5849 129.11 31.3053 128.92C32.0288 128.73 32.5356 128.306 32.8355 127.814L32.2989 127.487ZM32.795 127.968L32.8663 127.747L32.2681 127.554L32.1968 127.776L32.795 127.968ZM35.732 130.375C34.9593 130.685 34.3959 130.745 33.9914 130.673C33.5978 130.602 33.3291 130.402 33.141 130.127C32.7452 129.55 32.6989 128.628 32.8066 127.919L32.1852 127.825C32.0696 128.586 32.0907 129.707 32.6227 130.483C32.8985 130.885 33.3088 131.189 33.8804 131.291C34.4413 131.392 35.1296 131.294 35.9661 130.958L35.732 130.375ZM36.8062 127.425C37.023 127.567 37.2445 127.76 37.4088 127.981C37.5734 128.203 37.6681 128.436 37.668 128.666C37.6676 129.096 37.3167 129.739 35.732 130.375L35.9661 130.958C37.5998 130.303 38.2957 129.509 38.2964 128.666C38.2968 128.261 38.1306 127.899 37.9135 127.607C37.6962 127.314 37.4153 127.072 37.1498 126.899L36.8062 127.425ZM35.3207 128.271C35.8399 128.528 36.3018 128.389 36.6342 128.133C36.9499 127.889 37.1632 127.534 37.2679 127.283L36.688 127.041C36.6104 127.227 36.4533 127.478 36.25 127.635C36.0634 127.779 35.8576 127.836 35.6003 127.708L35.3207 128.271ZM34.4396 120.851C34.3954 121.964 34.3777 123.661 34.4693 125.131C34.515 125.865 34.5885 126.554 34.7028 127.09C34.7598 127.357 34.8295 127.599 34.9173 127.793C34.9997 127.975 35.1231 128.172 35.3207 128.271L35.6003 127.708C35.6038 127.709 35.5568 127.681 35.4899 127.534C35.4284 127.398 35.37 127.205 35.3174 126.959C35.2127 126.468 35.1415 125.815 35.0965 125.092C35.0067 123.65 35.0239 121.976 35.0675 120.876L34.4396 120.851Z" fill="url(#paint2_radial_2026_382)"/>
</g>
<path d="M40.9931 117.705C37.2222 118.962 33.2481 119.004 33.8631 117.32" stroke="url(#paint3_linear_2026_382)" stroke-width="0.628472" stroke-linecap="round" stroke-linejoin="round"/>
<path d="M40.9932 117.705C37.5366 118.962 33.7656 120.847 34.08 122.418" stroke="url(#paint4_linear_2026_382)" stroke-width="0.628472" stroke-linecap="round" stroke-linejoin="round"/>
<path d="M126.779 81.303L121.901 83.4195" stroke="#A6A6FF" stroke-width="0.905" stroke-linecap="round" stroke-linejoin="round"/>
<path d="M123.319 81.0004L121.797 79.8756C121.759 79.8475 121.729 79.8097 121.711 79.7662C121.692 79.7227 121.685 79.6749 121.691 79.628C121.697 79.581 121.716 79.5365 121.745 79.499C121.774 79.4616 121.812 79.4326 121.856 79.4149L123.779 78.6448C123.909 78.5929 124.053 78.594 124.182 78.6479L125.706 79.2845" stroke="#A6A6FF" stroke-width="0.905" stroke-linecap="round" stroke-linejoin="round"/>
<path d="M130.638 81.8066L131.846 80.0748C131.922 79.9663 131.97 79.8406 131.985 79.7091C132 79.5776 131.982 79.4444 131.933 79.3215C131.884 79.1986 131.805 79.0899 131.703 79.0052C131.601 78.9205 131.48 78.8624 131.35 78.8361L129.28 78.4175C128.671 78.2941 128.039 78.3517 127.462 78.5831L125.234 79.4747C124.385 79.8152 123.667 80.4206 123.189 81.2011L123.168 81.2345C123.017 81.4801 122.926 81.7575 122.902 82.0445C122.878 82.3315 122.921 82.6202 123.028 82.8876C123.135 83.155 123.304 83.3936 123.519 83.5845C123.735 83.7754 123.992 83.9133 124.271 83.9871L124.309 83.997C125.194 84.2315 126.131 84.1743 126.981 83.8339L129.207 82.9421C129.785 82.7112 130.282 82.3165 130.638 81.8066V81.8066Z" stroke="#A6A6FF" stroke-width="0.905" stroke-linecap="round" stroke-linejoin="round"/>
<path d="M128.362 78.3662C129.162 79.6213 129.72 81.0153 130.008 82.476" stroke="#A6A6FF" stroke-width="0.905" stroke-linecap="round" stroke-linejoin="round"/>
<path d="M124.54 84.0509L124.215 85.9153C124.207 85.9619 124.211 86.0099 124.228 86.0542C124.245 86.0986 124.273 86.1377 124.31 86.1675C124.346 86.1974 124.39 86.2168 124.437 86.2239C124.484 86.231 124.532 86.2255 124.576 86.2079L126.499 85.4378C126.628 85.386 126.732 85.2853 126.788 85.1574L127.451 83.6449" stroke="#A6A6FF" stroke-width="0.905" stroke-linecap="round" stroke-linejoin="round"/>
<path d="M119.461 83.4425C118.647 82.8475 116.929 81.8652 115.055 84.5157C115.055 84.5157 115.795 84.4793 116.185 84.7531C116.447 84.9364 116.722 85.2293 116.722 85.2293C116.166 84.9914 114.489 85.2599 113.865 88.4456C113.865 88.4456 115.616 87.8679 116.574 87.8788C117.304 87.887 118.122 88.2949 118.122 88.2949C118.747 88.5626 120.164 88.4786 120.83 86.0015" stroke="#A6A6FF" stroke-width="0.906889"/>
<path d="M106.922 92.1778C98.7565 95.9785 82.3358 105.98 81.9729 115.578C81.5192 127.577 88.681 129.865 94.6292 126.921C99.9083 124.308 103.747 116.484 96.7738 111.991C89.8002 107.497 58.2809 111.406 40.9979 117.691" stroke="#B2B2FF" stroke-width="0.628472" stroke-dasharray="3.14 3.14"/>
<defs>
<filter id="filter0_dd_2026_382" x="22.4531" y="106.707" width="17.2487" height="25.2508" filterUnits="userSpaceOnUse" color-interpolation-filters="sRGB">
<feFlood flood-opacity="0" result="BackgroundImageFix"/>
<feColorMatrix in="SourceAlpha" type="matrix" values="0 0 0 0 0 0 0 0 0 0 0 0 0 0 0 0 0 0 127 0" result="hardAlpha"/>
<feOffset dx="-1.25694"/>
<feComposite in2="hardAlpha" operator="out"/>
<feColorMatrix type="matrix" values="0 0 0 0 0 0 0 0 0 0 0 0 0 0 0 0 0 0 0.32 0"/>
<feBlend mode="normal" in2="BackgroundImageFix" result="effect1_dropShadow_2026_382"/>
<feColorMatrix in="SourceAlpha" type="matrix" values="0 0 0 0 0 0 0 0 0 0 0 0 0 0 0 0 0 0 127 0" result="hardAlpha"/>
<feOffset dx="1.25694" dy="0.628472"/>
<feComposite in2="hardAlpha" operator="out"/>
<feColorMatrix type="matrix" values="0 0 0 0 0 0 0 0 0 0 0 0 0 0 0 0 0 0 0.04 0"/>
<feBlend mode="normal" in2="effect1_dropShadow_2026_382" result="effect2_dropShadow_2026_382"/>
<feBlend mode="normal" in="SourceGraphic" in2="effect2_dropShadow_2026_382" result="shape"/>
</filter>
<linearGradient id="paint0_linear_2026_382" x1="-94.4931" y1="28.3089" x2="9.83247" y2="183.324" gradientUnits="userSpaceOnUse">
<stop stop-opacity="0"/>
<stop offset="1"/>
</linearGradient>
<radialGradient id="paint1_radial_2026_382" cx="0" cy="0" r="1" gradientUnits="userSpaceOnUse" gradientTransform="translate(45.7419 115.75) rotate(163.935) scale(21.6322 12.5111)">
<stop stop-color="#B2B2FF"/>
<stop offset="0.82" stop-color="#9A9AEE"/>
<stop offset="1" stop-color="#7B7BD7"/>
</radialGradient>
<radialGradient id="paint2_radial_2026_382" cx="0" cy="0" r="1" gradientUnits="userSpaceOnUse" gradientTransform="translate(45.7419 115.75) rotate(163.935) scale(21.6322 12.5111)">
<stop stop-color="#B2B2FF"/>
<stop offset="1" stop-color="#7B7BD7"/>
</radialGradient>
<linearGradient id="paint3_linear_2026_382" x1="30.6233" y1="113.62" x2="40.5509" y2="119.056" gradientUnits="userSpaceOnUse">
<stop stop-color="#7B7BD7"/>
<stop offset="1" stop-color="#B2B2FF"/>
</linearGradient>
<linearGradient id="paint4_linear_2026_382" x1="31.8803" y1="125.561" x2="40.3991" y2="116.843" gradientUnits="userSpaceOnUse">
<stop stop-color="#7B7BD7"/>
<stop offset="1" stop-color="#B2B2FF"/>
</linearGradient>
</defs>
</svg>
