<svg width="150.000000" height="150.000000" viewBox="0 0 150 150" fill="none" xmlns="http://www.w3.org/2000/svg" xmlns:xlink="http://www.w3.org/1999/xlink">
	<desc>
			Created with Pixso.
	</desc>
	<defs>
		<clipPath id="clip1_501">
			<rect id="planet-svgrepo-com" width="150.000000" height="150.000000" fill="white" fill-opacity="0"/>
		</clipPath>
	</defs>
	<rect id="planet-svgrepo-com" width="150.000000" height="150.000000" fill="#FFFFFF" fill-opacity="0"/>
	<g clip-path="url(#clip1_501)">
		<path id="Vector" d="M125 74.99C125 102.61 102.61 124.99 75 124.99C47.38 124.99 25 102.61 25 74.99C25 47.38 47.38 24.99 75 24.99C102.61 24.99 125 47.38 125 74.99Z" fill="#8D8DFF" fill-opacity="1.000000" fill-rule="nonzero"/>
		<path id="Vector" d="M110.7 34.08C117.24 32.87 123.24 32.46 128.18 33.12C132.99 33.77 137.78 35.59 140.4 39.78C143.19 44.24 142.35 49.41 140.32 53.89C138.27 58.44 134.59 63.26 129.87 68.07C120.4 77.73 105.9 88.23 88.64 97.42C71.38 106.62 54.3 112.95 40.56 115.67C33.71 117.03 27.44 117.54 22.29 116.93C17.29 116.33 12.29 114.53 9.59 110.21C6.65 105.51 7.74 100.02 10.02 95.34C12.37 90.54 16.48 85.43 21.73 80.32L25 77.6C25 78.96 25.52 82.03 26.05 84.76C26.32 86.19 26.6 87.53 26.81 88.49C22.74 92.64 19.95 96.38 18.45 99.46C16.71 103 17.15 104.61 17.54 105.24C17.99 105.97 19.44 107.15 23.4 107.62C27.2 108.07 32.4 107.73 38.74 106.47C51.37 103.97 67.57 98.03 84.23 89.15C100.91 80.27 114.56 70.3 123.18 61.5C127.51 57.08 130.36 53.17 131.78 50.02C133.24 46.81 132.82 45.34 132.45 44.75C132.01 44.05 130.65 42.91 126.93 42.42C123.55 41.96 118.98 42.16 113.41 43.12L105.43 35.34C107.55 34.71 109.54 34.28 110.7 34.08Z" fill="#52528F" fill-opacity="1.000000" fill-rule="nonzero"/>
	</g>
</svg>
