<svg width="97.000000" height="80.000000" viewBox="0 0 97 80" fill="none" xmlns="http://www.w3.org/2000/svg" xmlns:xlink="http://www.w3.org/1999/xlink">
	<desc>
			Created with Pixso.
	</desc>
	<defs/>
	<circle id="Ellipse 5726" cx="48.500000" cy="39.500000" r="39.500000" fill="#8D8DFF" fill-opacity="1.000000"/>
	<g opacity="0.400000">
		<path id="Vector" d="M67.09 39.09C67.09 41.93 64.79 44.23 61.95 44.23C59.11 44.23 56.81 41.93 56.81 39.09C56.81 36.25 59.11 33.95 61.95 33.95C64.79 33.95 67.09 36.25 67.09 39.09Z" fill="#555591" fill-opacity="1.000000" fill-rule="nonzero"/>
	</g>
	<g opacity="0.400000">
		<path id="Vector" d="M53.35 12.82C53.35 14.54 51.95 15.93 50.23 15.93C48.51 15.93 47.11 14.54 47.11 12.82C47.11 11.09 48.51 9.7 50.23 9.7C51.95 9.7 53.35 11.09 53.35 12.82Z" fill="#555591" fill-opacity="1.000000" fill-rule="nonzero"/>
	</g>
	<path id="Vector" d="M89.53 52.03C92.57 56.33 94.85 60.5 96 64.27C97.12 67.95 97.38 71.99 95.19 75.28C92.87 78.77 88.82 79.9 84.89 79.94C80.9 79.99 76.18 78.95 71.13 77.18C60.96 73.61 48.53 66.7 36.15 57.38C23.75 48.05 13.51 37.9 6.99 28.94C3.74 24.47 1.3 20.14 0.05 16.23C-1.17 12.44 -1.51 8.25 0.74 4.86C3.19 1.18 7.55 0.12 11.71 0.2C15.98 0.28 21.06 1.52 26.51 3.58L29.57 5.02C28.57 5.48 26.51 6.88 24.7 8.17C23.75 8.85 22.87 9.5 22.24 9.97C17.87 8.43 14.23 7.68 11.5 7.63C8.34 7.57 7.31 8.42 6.99 8.91C6.61 9.48 6.23 10.92 7.19 13.91C8.11 16.8 10.08 20.42 13.08 24.55C19.08 32.79 28.75 42.44 40.71 51.44C52.68 60.45 64.44 66.92 73.69 70.17C78.34 71.81 82.13 72.54 84.89 72.52C87.71 72.48 88.64 71.7 88.95 71.23C89.31 70.68 89.69 69.32 88.82 66.48C88.04 63.9 86.39 60.69 83.85 57.01L86.87 48.67C88.03 49.98 89.01 51.27 89.53 52.03Z" fill="#52528F" fill-opacity="1.000000" fill-rule="nonzero"/>
</svg>
