<svg width="88" height="88" viewBox="0 0 88 88" fill="none" xmlns="http://www.w3.org/2000/svg">
<path d="M27.3271 9.94642C28.7012 6.46228 33.6322 6.46232 35.0063 9.94646L39.2645 20.7435C39.684 21.8072 40.5262 22.6493 41.5899 23.0688L52.3868 27.3271C55.8712 28.7012 55.8712 33.6321 52.3868 35.0063L41.5899 39.2645C40.5262 39.684 39.684 40.5262 39.2645 41.5899L35.0063 52.3868C33.6322 55.8712 28.7012 55.8712 27.3271 52.3868L23.0688 41.5899C22.6493 40.5262 21.8073 39.684 20.7435 39.2645L9.94646 35.0063C6.46232 33.6321 6.46236 28.7012 9.9465 27.3271L20.7435 23.0688C21.8073 22.6493 22.6493 21.8072 23.0688 20.7435L27.3271 9.94642Z" fill="#8D8DFF"/>
<path opacity="0.5" d="M62.0565 49.1025C62.8118 47.1882 65.5215 47.1882 66.2768 49.1025L69.579 57.4761C69.8097 58.0609 70.2724 58.5237 70.8572 58.7543L79.2308 62.0565C81.1452 62.8118 81.1452 65.5215 79.2308 66.2768L70.8572 69.579C70.2724 69.8097 69.8097 70.2724 69.579 70.8572L66.2768 79.2308C65.5215 81.1452 62.8118 81.1452 62.0565 79.2308L58.7543 70.8572C58.5237 70.2724 58.0609 69.8097 57.4761 69.579L49.1025 66.2768C47.1882 65.5215 47.1882 62.8118 49.1025 62.0565L57.4761 58.7543C58.0609 58.5237 58.5237 58.0609 58.7543 57.4761L62.0565 49.1025Z" fill="#8D8DFF"/>
</svg>
