<svg width="28" height="41" viewBox="0 0 28 41" fill="none" xmlns="http://www.w3.org/2000/svg">
<g filter="url(#filter0_dd_1_559)">
<path fill-rule="evenodd" clip-rule="evenodd" d="M11.853 6.73777C10.3246 6.12125 8.46064 6.59461 7.85744 9.15971C7.04676 12.6071 8.74205 12.7664 10.0409 12.8884L10.0411 12.8884C10.1107 12.895 10.1792 12.9014 10.246 12.9082C9.91628 12.2658 12.6147 14.7325 12.6147 14.7325C12.6147 14.7325 15.2196 16.5701 17.4011 18.7169L18.0151 19.9696L6.68525 14.0787C4.34226 13.7511 1.65034 17.4913 3.76634 22.5877C5.77461 27.4246 7.03327 25.4153 7.99758 23.8758C8.04931 23.7932 8.10019 23.712 8.15029 23.6333C7.45251 23.3515 11.0953 22.5877 11.0953 22.5877C11.0953 22.5877 15.0047 20.9114 18.3647 20.6828L18.8254 21.6226C18.7404 21.3249 18.6451 21.0068 18.5415 20.6721C18.7845 20.6592 19.0243 20.6543 19.259 20.6586L19.3837 21.3384C19.6168 17.6709 20.3856 10.2079 21.5965 9.69565C22.8075 9.18338 23.506 10.5535 23.704 11.3025C25.2331 10.4175 27.1551 7.98599 22.6096 5.34041C21.5489 4.72307 20.6836 4.48174 19.9813 4.50583C20.3085 3.3034 19.6739 2.06171 16.0414 1.12762C12.7375 0.27802 11.4465 3.85053 11.853 6.73777ZM18.1713 19.5095C18.3956 19.752 18.6102 19.996 18.8113 20.2394L17.1169 16.3562C15.6822 12.1084 14.1597 7.54289 14.7706 6.72829C16.2711 4.72767 17.3686 4.96374 18.079 5.5804C17.3523 6.62775 17.1523 8.23027 17.1952 9.41541L19.2504 20.6118L18.3806 20.1596C18.3133 19.948 18.2434 19.7311 18.1713 19.5095ZM20.0722 23.0256L17.0411 32.4356C17.0563 32.181 17.0338 31.9377 16.9754 31.7187C16.2957 32.0416 13.2825 32.6539 12.7734 31.3718C12.2643 30.0896 17.0542 24.7124 19.5127 22.1841L9.38849 28.081C7.56131 29.5837 5.20286 33.0624 10.3865 34.9547C13.792 36.1979 15.7706 35.1755 16.5933 33.8255L16.4799 34.1777C16.1246 36.5166 16.6942 40.6806 21.8153 38.6249C26.9363 36.5693 25.1466 34.0507 23.6116 33.0483C23.3216 33.7427 22.4326 34.9781 21.1971 34.3643C19.9616 33.7506 19.9324 26.5494 20.0722 23.0256Z" fill="url(#paint0_radial_1_559)"/>
<path d="M11.853 6.73777L11.6659 7.20147C11.8316 7.26828 12.0203 7.24167 12.161 7.13165C12.3017 7.02164 12.373 6.84493 12.3481 6.66807L11.853 6.73777ZM7.85744 9.15971L8.34416 9.27417L7.85744 9.15971ZM10.0409 12.8884L9.9941 13.3862L9.99561 13.3864L10.0409 12.8884ZM10.0411 12.8884L10.0879 12.3906L10.0864 12.3905L10.0411 12.8884ZM10.246 12.9082L10.1952 13.4057C10.3776 13.4243 10.5556 13.3416 10.6589 13.1902C10.7623 13.0388 10.7746 12.843 10.6909 12.6799L10.246 12.9082ZM12.6147 14.7325L12.2773 15.1015C12.2929 15.1157 12.3093 15.1289 12.3265 15.141L12.6147 14.7325ZM17.4011 18.7169L17.8501 18.4969C17.8253 18.4462 17.792 18.4001 17.7518 18.3606L17.4011 18.7169ZM18.0151 19.9696L17.7845 20.4132C17.9761 20.5128 18.21 20.4782 18.3645 20.3273C18.519 20.1764 18.5591 19.9434 18.4641 19.7495L18.0151 19.9696ZM6.68525 14.0787L6.9159 13.6351C6.86543 13.6089 6.81084 13.5914 6.7545 13.5836L6.68525 14.0787ZM3.76634 22.5877L3.30456 22.7794L3.76634 22.5877ZM7.99758 23.8758L8.42131 24.1413H8.42131L7.99758 23.8758ZM8.15029 23.6333L8.57214 23.9017C8.65187 23.7764 8.67177 23.6221 8.62644 23.4807C8.58111 23.3392 8.47525 23.2253 8.33754 23.1696L8.15029 23.6333ZM11.0953 22.5877L11.1979 23.0771C11.2303 23.0703 11.262 23.0603 11.2924 23.0472L11.0953 22.5877ZM18.3647 20.6828L18.8137 20.4627C18.7243 20.2803 18.5334 20.1701 18.3308 20.1839L18.3647 20.6828ZM18.8254 21.6226L18.3764 21.8427C18.4904 22.0752 18.7631 22.1823 19.0048 22.0894C19.2465 21.9965 19.3773 21.7344 19.3062 21.4854L18.8254 21.6226ZM18.5415 20.6721L18.515 20.1728C18.3611 20.1809 18.2195 20.2596 18.1313 20.3861C18.0431 20.5126 18.0182 20.6726 18.0638 20.8199L18.5415 20.6721ZM19.259 20.6586L19.7507 20.5683C19.7078 20.3343 19.5059 20.163 19.268 20.1586L19.259 20.6586ZM19.3837 21.3384L18.892 21.4287C18.9376 21.6771 19.1612 21.8525 19.4132 21.8376C19.6653 21.8227 19.8667 21.6221 19.8827 21.3701L19.3837 21.3384ZM21.5965 9.69565L21.4017 9.23515L21.5965 9.69565ZM23.704 11.3025L23.2205 11.4303C23.2603 11.5809 23.3681 11.7044 23.5121 11.7642C23.656 11.8241 23.8195 11.8133 23.9544 11.7353L23.704 11.3025ZM22.6096 5.34041L22.3581 5.77255L22.6096 5.34041ZM19.9813 4.50583L19.4989 4.37453C19.4572 4.52776 19.4907 4.69169 19.5893 4.8162C19.6879 4.9407 19.8397 5.01098 19.9984 5.00553L19.9813 4.50583ZM16.0414 1.12762L16.1659 0.643373L16.0414 1.12762ZM18.1713 19.5095L18.5383 19.17C18.3788 18.9975 18.1208 18.9593 17.9182 19.0782C17.7157 19.1971 17.6231 19.4409 17.6958 19.6643L18.1713 19.5095ZM18.8113 20.2394L18.4257 20.5578C18.5844 20.75 18.8605 20.7959 19.0729 20.6655C19.2854 20.535 19.3692 20.268 19.2695 20.0395L18.8113 20.2394ZM17.1169 16.3562L16.6432 16.5161C16.6478 16.5297 16.6529 16.543 16.6586 16.5561L17.1169 16.3562ZM14.7706 6.72829L15.1706 7.02829L14.7706 6.72829ZM18.079 5.5804L18.4898 5.86543C18.6353 5.65574 18.5995 5.37011 18.4067 5.2028L18.079 5.5804ZM17.1952 9.41541L16.6956 9.43352C16.6965 9.45773 16.6991 9.48185 16.7035 9.50568L17.1952 9.41541ZM19.2504 20.6118L19.0197 21.0555C19.1892 21.1436 19.394 21.1274 19.5475 21.0139C19.7011 20.9005 19.7766 20.7094 19.7422 20.5216L19.2504 20.6118ZM18.3806 20.1596L17.9041 20.3111C17.9442 20.4371 18.0326 20.5422 18.1499 20.6032L18.3806 20.1596ZM17.0411 32.4356L16.542 32.4057C16.5269 32.6571 16.7012 32.8805 16.9487 32.927C17.1963 32.9735 17.4397 32.8286 17.517 32.5889L17.0411 32.4356ZM20.0722 23.0256L20.5718 23.0454C20.5817 22.7957 20.4057 22.577 20.1596 22.5333C19.9135 22.4896 19.6729 22.6344 19.5963 22.8723L20.0722 23.0256ZM16.9754 31.7187L17.4586 31.5899C17.4203 31.4464 17.3202 31.3273 17.1854 31.2649C17.0506 31.2026 16.8951 31.2033 16.7609 31.2671L16.9754 31.7187ZM12.7734 31.3718L12.3087 31.5563H12.3087L12.7734 31.3718ZM19.5127 22.1841L19.8712 22.5326C20.0454 22.3535 20.0606 22.0731 19.9067 21.8762C19.7528 21.6792 19.4771 21.6262 19.2611 21.752L19.5127 22.1841ZM9.38849 28.081L9.13684 27.6489C9.11366 27.6624 9.09161 27.6777 9.07089 27.6948L9.38849 28.081ZM10.3865 34.9547L10.5579 34.485L10.3865 34.9547ZM16.5933 33.8255L17.0693 33.9788C17.147 33.7376 17.0319 33.4764 16.8016 33.3709C16.5712 33.2654 16.2983 33.3489 16.1664 33.5653L16.5933 33.8255ZM16.4799 34.1777L16.004 34.0244C15.9958 34.0499 15.9896 34.0761 15.9856 34.1026L16.4799 34.1777ZM21.8153 38.6249L22.0016 39.089L21.8153 38.6249ZM23.6116 33.0483L23.885 32.6297C23.7606 32.5485 23.6066 32.5268 23.4646 32.5704C23.3227 32.6141 23.2075 32.7186 23.1502 32.8556L23.6116 33.0483ZM21.1971 34.3643L21.4196 33.9165H21.4196L21.1971 34.3643ZM12.04 6.27408C11.1745 5.92493 10.174 5.86898 9.28678 6.30737C8.38955 6.75071 7.69769 7.65481 7.37071 9.04526L8.34416 9.27417C8.62039 8.09951 9.16211 7.48439 9.72977 7.2039C10.3074 6.91846 11.0031 6.93409 11.6659 7.20147L12.04 6.27408ZM7.37071 9.04526C6.95482 10.8138 7.12856 11.947 7.80412 12.6242C8.13102 12.9519 8.53173 13.1236 8.91134 13.2229C9.28614 13.3208 9.67649 13.3564 9.9941 13.3862L10.0877 12.3906C9.75585 12.3594 9.44723 12.3293 9.1642 12.2554C8.88598 12.1826 8.67001 12.0762 8.51207 11.9179C8.21794 11.6231 7.94937 10.953 8.34416 9.27417L7.37071 9.04526ZM9.99561 13.3864L9.99583 13.3864L10.0864 12.3905L10.0861 12.3905L9.99561 13.3864ZM9.99431 13.3863C10.0643 13.3928 10.1307 13.3991 10.1952 13.4057L10.2968 12.4108C10.2276 12.4038 10.1571 12.3971 10.0879 12.3906L9.99431 13.3863ZM10.6909 12.6799C10.6878 12.6739 10.6931 12.6831 10.6997 12.7037C10.704 12.7168 10.7246 12.7809 10.716 12.8705C10.7055 12.9804 10.6459 13.1412 10.4786 13.2378C10.3435 13.316 10.219 13.3023 10.1832 13.2973C10.1091 13.2868 10.0718 13.2602 10.104 13.2777C10.1209 13.2868 10.1507 13.3049 10.1953 13.3353C10.3779 13.4599 10.6664 13.6924 10.9836 13.961C11.2956 14.2252 11.619 14.5103 11.8653 14.7301C11.9882 14.8398 12.0914 14.9329 12.1639 14.9985C12.2001 15.0312 12.2286 15.0571 12.248 15.0748C12.2576 15.0836 12.2651 15.0903 12.27 15.0948C12.2725 15.0971 12.2744 15.0988 12.2756 15.0999C12.2762 15.1005 12.2766 15.1009 12.2769 15.1012C12.2771 15.1013 12.2772 15.1014 12.2773 15.1015C12.2773 15.1015 12.2773 15.1015 12.2773 15.1015C12.2773 15.1015 12.2773 15.1015 12.6147 14.7325C12.952 14.3634 12.952 14.3634 12.952 14.3634C12.952 14.3634 12.9519 14.3633 12.9519 14.3633C12.9518 14.3632 12.9516 14.3631 12.9514 14.3629C12.9511 14.3626 12.9506 14.3621 12.9499 14.3615C12.9485 14.3602 12.9465 14.3584 12.9439 14.356C12.9387 14.3512 12.931 14.3442 12.921 14.3351C12.901 14.3169 12.8718 14.2904 12.8349 14.257C12.7611 14.1902 12.6561 14.0956 12.5312 13.9841C12.2818 13.7615 11.9512 13.47 11.6298 13.1979C11.3136 12.9301 10.9893 12.6664 10.7587 12.5092C10.7 12.4691 10.639 12.4302 10.5803 12.3984C10.537 12.3749 10.4394 12.3235 10.3231 12.3071C10.2662 12.2991 10.1251 12.2871 9.97819 12.3721C9.79924 12.4755 9.73274 12.6481 9.72057 12.7752C9.71033 12.8821 9.73453 12.9688 9.74789 13.0102C9.76364 13.0591 9.78368 13.1024 9.8012 13.1366L10.6909 12.6799ZM12.6147 14.7325C12.3265 15.141 12.3264 15.141 12.3264 15.141C12.3264 15.141 12.3264 15.141 12.3265 15.141C12.3265 15.1411 12.3266 15.1411 12.3267 15.1412C12.3269 15.1414 12.3273 15.1416 12.3279 15.142C12.3289 15.1428 12.3307 15.144 12.333 15.1457C12.3376 15.149 12.3447 15.154 12.3542 15.1607C12.3731 15.1742 12.4014 15.1945 12.4384 15.2212C12.5124 15.2745 12.621 15.3535 12.7585 15.4552C13.0334 15.6585 13.4231 15.9522 13.8804 16.3124C14.7967 17.0342 15.9777 18.0177 17.0504 19.0733L17.7518 18.3606C16.643 17.2694 15.4308 16.2607 14.4992 15.5269C14.0326 15.1594 13.6348 14.8595 13.3531 14.6512C13.2122 14.547 13.1003 14.4656 13.0233 14.4101C12.9848 14.3823 12.9551 14.361 12.9348 14.3465C12.9246 14.3393 12.9168 14.3337 12.9115 14.33C12.9088 14.3281 12.9067 14.3266 12.9053 14.3256C12.9046 14.3251 12.904 14.3247 12.9036 14.3244C12.9034 14.3243 12.9033 14.3242 12.9032 14.3241C12.9031 14.324 12.903 14.324 12.903 14.324C12.903 14.3239 12.9029 14.3239 12.6147 14.7325ZM16.9522 18.937L17.5662 20.1897L18.4641 19.7495L17.8501 18.4969L16.9522 18.937ZM18.2458 19.526L6.9159 13.6351L6.45459 14.5224L17.7845 20.4132L18.2458 19.526ZM6.7545 13.5836C5.28074 13.3775 3.85181 14.4477 3.0991 16.091C2.33213 17.7653 2.2007 20.1207 3.30456 22.7794L4.22812 22.396C3.21599 19.9582 3.37251 17.8953 4.00826 16.5074C4.65825 15.0884 5.74677 14.4524 6.616 14.5739L6.7545 13.5836ZM3.30456 22.7794C3.81433 24.0072 4.29501 24.8486 4.76528 25.3781C5.23972 25.9122 5.7671 26.1937 6.33857 26.1187C6.86982 26.0489 7.284 25.6851 7.59011 25.3314C7.90506 24.9675 8.18509 24.5184 8.42131 24.1413L7.57384 23.6104C7.32791 24.003 7.08899 24.3823 6.83397 24.677C6.57012 24.9819 6.36331 25.1068 6.20832 25.1272C6.09355 25.1422 5.86945 25.1154 5.51293 24.714C5.15224 24.3079 4.72249 23.5867 4.22812 22.396L3.30456 22.7794ZM8.42131 24.1413C8.47322 24.0584 8.52315 23.9787 8.57214 23.9017L7.72845 23.3649C7.67723 23.4454 7.62539 23.5281 7.57384 23.6104L8.42131 24.1413ZM8.33754 23.1696C8.34009 23.1707 8.3604 23.1789 8.38829 23.1988C8.41561 23.2184 8.46568 23.2603 8.50597 23.3332C8.61363 23.5279 8.54258 23.7119 8.48881 23.7903C8.4489 23.8484 8.41199 23.8665 8.43396 23.8523C8.44704 23.8439 8.47526 23.828 8.52391 23.8058C8.72697 23.713 9.08198 23.6 9.49357 23.4869C9.89583 23.3765 10.3218 23.274 10.6491 23.1987C10.8123 23.1612 10.95 23.1307 11.0468 23.1096C11.0951 23.099 11.1332 23.0908 11.159 23.0853C11.172 23.0825 11.1818 23.0805 11.1884 23.0791C11.1917 23.0784 11.1941 23.0779 11.1957 23.0775C11.1965 23.0773 11.1971 23.0772 11.1975 23.0771C11.1977 23.0771 11.1978 23.0771 11.1979 23.0771C11.1979 23.0771 11.1979 23.0771 11.198 23.077C11.198 23.077 11.1979 23.0771 11.0953 22.5877C10.9927 22.0983 10.9927 22.0983 10.9926 22.0984C10.9926 22.0984 10.9925 22.0984 10.9925 22.0984C10.9923 22.0984 10.9921 22.0985 10.9919 22.0985C10.9914 22.0986 10.9906 22.0988 10.9897 22.099C10.9878 22.0994 10.985 22.1 10.9814 22.1007C10.9742 22.1022 10.9637 22.1045 10.9502 22.1074C10.923 22.1132 10.8835 22.1217 10.8336 22.1325C10.7339 22.1543 10.5924 22.1857 10.425 22.2241C10.091 22.3009 9.64996 22.407 9.22873 22.5227C8.81684 22.6358 8.39197 22.7666 8.10825 22.8962C8.03521 22.9296 7.96005 22.968 7.89197 23.0119C7.83279 23.0501 7.73693 23.1186 7.66419 23.2246C7.57759 23.3508 7.49983 23.5801 7.63078 23.817C7.72823 23.9933 7.89093 24.0678 7.96305 24.0969L8.33754 23.1696ZM11.0953 22.5877C11.2924 23.0472 11.2923 23.0472 11.2923 23.0473C11.2923 23.0473 11.2923 23.0473 11.2923 23.0473C11.2924 23.0472 11.2925 23.0472 11.2926 23.0471C11.2929 23.047 11.2935 23.0468 11.2943 23.0464C11.2959 23.0457 11.2984 23.0447 11.3018 23.0432C11.3086 23.0403 11.3191 23.0359 11.3332 23.03C11.3613 23.0182 11.4035 23.0007 11.4587 22.9782C11.5692 22.9331 11.7318 22.868 11.9378 22.789C12.3499 22.6309 12.9345 22.4175 13.6226 22.1971C15.0054 21.7541 16.778 21.2919 18.3986 21.1816L18.3308 20.1839C16.5914 20.3023 14.7294 20.7925 13.3175 21.2448C12.6082 21.472 12.0055 21.692 11.5796 21.8554C11.3666 21.9371 11.1974 22.0048 11.081 22.0523C11.0228 22.076 10.9778 22.0947 10.9469 22.1076C10.9315 22.1141 10.9197 22.1191 10.9115 22.1225C10.9075 22.1242 10.9043 22.1256 10.9021 22.1265C10.901 22.127 10.9001 22.1274 10.8995 22.1276C10.8992 22.1278 10.8989 22.1279 10.8987 22.128C10.8986 22.128 10.8985 22.1281 10.8985 22.1281C10.8984 22.1281 10.8983 22.1282 11.0953 22.5877ZM17.9157 20.9028L18.3764 21.8427L19.2744 21.4026L18.8137 20.4627L17.9157 20.9028ZM19.3062 21.4854C19.2199 21.1833 19.1235 20.8616 19.0191 20.5242L18.0638 20.8199C18.1666 21.152 18.2608 21.4665 18.3446 21.7599L19.3062 21.4854ZM18.5679 21.1714C18.8004 21.1591 19.0282 21.1545 19.2499 21.1585L19.268 20.1586C19.0203 20.1541 18.7686 20.1593 18.515 20.1728L18.5679 21.1714ZM18.7672 20.7488L18.892 21.4287L19.8755 21.2482L19.7507 20.5683L18.7672 20.7488ZM19.8827 21.3701C19.9987 19.5456 20.2479 16.7791 20.6175 14.4109C20.8026 13.2246 21.0155 12.1547 21.252 11.3574C21.3708 10.9573 21.4901 10.6447 21.6055 10.426C21.7337 10.1832 21.8094 10.1485 21.7913 10.1561L21.4017 9.23515C21.0809 9.37087 20.8678 9.68145 20.7212 9.95918C20.5619 10.2609 20.4206 10.6441 20.2934 11.073C20.0379 11.9337 19.817 13.0549 19.6294 14.2567C19.2536 16.665 19.0019 19.4638 18.8848 21.3067L19.8827 21.3701ZM21.7913 10.1561C21.9978 10.0688 22.1514 10.0718 22.2718 10.1061C22.4007 10.1429 22.5336 10.2283 22.6663 10.369C22.9402 10.6597 23.1341 11.1032 23.2205 11.4303L24.1874 11.1748C24.0759 10.7528 23.8215 10.1367 23.394 9.68314C23.1759 9.45177 22.8948 9.2439 22.546 9.14444C22.1885 9.04252 21.8008 9.06635 21.4017 9.23515L21.7913 10.1561ZM23.9544 11.7353C24.7743 11.2607 25.8055 10.317 25.9324 9.03073C26.065 7.68637 25.1937 6.26589 22.8611 4.90827L22.3581 5.77255C24.571 7.06051 25.0116 8.17857 24.9372 8.9326C24.8571 9.7447 24.1628 10.4593 23.4535 10.8698L23.9544 11.7353ZM22.8611 4.90827C21.7533 4.26347 20.7936 3.97767 19.9642 4.00612L19.9984 5.00553C20.5736 4.98581 21.3446 5.18266 22.3581 5.77255L22.8611 4.90827ZM20.4638 4.63712C20.5621 4.27571 20.5947 3.88653 20.5014 3.48812C20.4076 3.08713 20.194 2.71015 19.8515 2.36429C19.1828 1.68893 18.0081 1.11708 16.1659 0.643373L15.9169 1.61186C17.7072 2.07225 18.6661 2.58829 19.141 3.0679C19.3703 3.29953 19.4811 3.51681 19.5277 3.71601C19.575 3.91779 19.5641 4.13473 19.4989 4.37453L20.4638 4.63712ZM16.1659 0.643373C15.2462 0.406854 14.4279 0.470266 13.7309 0.783767C13.0384 1.09524 12.5091 1.63384 12.1264 2.27517C11.3689 3.54475 11.1431 5.28178 11.3579 6.80747L12.3481 6.66807C12.1564 5.30653 12.3729 3.81368 12.9852 2.78759C13.2874 2.28109 13.675 1.90541 14.1411 1.69576C14.6027 1.48814 15.1847 1.42358 15.9169 1.61186L16.1659 0.643373ZM17.8042 19.849C18.0231 20.0856 18.2314 20.3225 18.4257 20.5578L19.1968 19.9211C18.989 19.6694 18.7681 19.4183 18.5383 19.17L17.8042 19.849ZM19.2695 20.0395L17.5752 16.1562L16.6586 16.5561L18.353 20.4394L19.2695 20.0395ZM17.5906 16.1962C16.8721 14.0687 16.138 11.8803 15.6591 10.1233C15.4192 9.24326 15.2484 8.48937 15.1736 7.91444C15.136 7.62622 15.1251 7.40033 15.1361 7.23481C15.1481 7.05444 15.1822 7.0128 15.1706 7.02829L14.3706 6.42829C14.2063 6.64742 14.1544 6.92665 14.1383 7.16847C14.1212 7.42514 14.1402 7.72277 14.1819 8.04349C14.2656 8.68645 14.4505 9.49217 14.6943 10.3863C15.1825 12.1776 15.9271 14.3959 16.6432 16.5161L17.5906 16.1962ZM15.1706 7.02829C15.8903 6.06869 16.4458 5.74042 16.8224 5.66249C17.17 5.59055 17.4685 5.71256 17.7512 5.95799L18.4067 5.2028C17.9791 4.83157 17.3736 4.52723 16.6197 4.68324C15.8948 4.83327 15.1514 5.38727 14.3706 6.42829L15.1706 7.02829ZM17.6682 5.29536C16.8492 6.47572 16.6513 8.21066 16.6956 9.43352L17.6949 9.39731C17.6533 8.24988 17.8554 6.77977 18.4898 5.86543L17.6682 5.29536ZM16.7035 9.50568L18.7586 20.7021L19.7422 20.5216L17.687 9.32515L16.7035 9.50568ZM19.481 20.1682L18.6112 19.716L18.1499 20.6032L19.0197 21.0555L19.481 20.1682ZM18.8571 20.0081C18.7894 19.7953 18.7192 19.5772 18.6467 19.3547L17.6958 19.6643C17.7677 19.8849 17.8372 20.1008 17.9041 20.3111L18.8571 20.0081ZM17.517 32.5889L20.5481 23.1789L19.5963 22.8723L16.5651 32.2823L17.517 32.5889ZM16.4923 31.8475C16.5354 32.0092 16.5544 32.1984 16.542 32.4057L17.5402 32.4655C17.5583 32.1636 17.5323 31.8663 17.4586 31.5899L16.4923 31.8475ZM12.3087 31.5563C12.5111 32.066 12.9503 32.3442 13.3954 32.4881C13.8383 32.6312 14.3493 32.6644 14.8288 32.6468C15.7777 32.6119 16.7721 32.3688 17.19 32.1704L16.7609 31.2671C16.499 31.3915 15.647 31.616 14.792 31.6475C14.3697 31.663 13.9894 31.6291 13.7029 31.5365C13.4186 31.4447 13.2903 31.3186 13.2381 31.1872L12.3087 31.5563ZM19.1543 21.8355C17.9178 23.107 16.0933 25.0966 14.6381 26.9349C13.9121 27.8521 13.2665 28.746 12.8323 29.5017C12.616 29.8783 12.4417 30.2385 12.3393 30.5615C12.2432 30.8647 12.1791 31.2299 12.3087 31.5563L13.2381 31.1872C13.2404 31.193 13.2146 31.1098 13.2926 30.8636C13.3643 30.6373 13.4999 30.3472 13.6995 29.9999C14.0971 29.3077 14.7071 28.4589 15.4222 27.5555C16.8494 25.7526 18.6491 23.7895 19.8712 22.5326L19.1543 21.8355ZM9.64015 28.513L19.7644 22.6161L19.2611 21.752L9.13684 27.6489L9.64015 28.513ZM10.5579 34.485C9.31342 34.0307 8.5829 33.5025 8.18131 32.9866C7.79038 32.4844 7.68522 31.9616 7.75417 31.4369C7.89927 30.3328 8.82519 29.1916 9.7061 28.4671L9.07089 27.6948C8.12462 28.4731 6.95772 29.8226 6.7627 31.3066C6.6616 32.0759 6.82455 32.8716 7.39221 33.6008C7.9492 34.3163 8.86773 34.9326 10.215 35.4244L10.5579 34.485ZM16.1664 33.5653C15.8208 34.1324 15.2266 34.6437 14.3313 34.879C13.4313 35.1156 12.1919 35.0815 10.5579 34.485L10.215 35.4244C11.9865 36.0711 13.4392 36.1475 14.5855 35.8461C15.7366 35.5436 16.5431 34.8686 17.0203 34.0857L16.1664 33.5653ZM16.9558 34.331L17.0693 33.9788L16.1174 33.6722L16.004 34.0244L16.9558 34.331ZM21.629 38.1609C20.3995 38.6545 19.5031 38.7496 18.8596 38.6341C18.2332 38.5216 17.8056 38.203 17.5063 37.7665C16.8765 36.8481 16.8029 35.3804 16.9742 34.2528L15.9856 34.1026C15.8016 35.3139 15.8351 37.0977 16.6816 38.3321C17.1204 38.972 17.7733 39.4551 18.6829 39.6183C19.5754 39.7785 20.6705 39.6232 22.0016 39.089L21.629 38.1609ZM23.3382 33.467C23.6832 33.6922 24.0356 33.999 24.2971 34.3514C24.559 34.7044 24.7098 35.0749 24.7095 35.4412C24.7089 36.125 24.1506 37.1487 21.629 38.1609L22.0016 39.089C24.6011 38.0455 25.7084 36.7821 25.7095 35.442C25.71 34.7964 25.4455 34.2209 25.1002 33.7555C24.7544 33.2895 24.3075 32.9056 23.885 32.6297L23.3382 33.467ZM20.9747 34.8121C21.8008 35.2225 22.5356 35.0011 23.0645 34.5926C23.5669 34.2046 23.9064 33.6399 24.073 33.241L23.1502 32.8556C23.0268 33.1511 22.7768 33.5513 22.4533 33.8012C22.1563 34.0305 21.829 34.1199 21.4196 33.9165L20.9747 34.8121ZM19.5726 23.0058C19.5023 24.7779 19.4742 27.4773 19.6199 29.8173C19.6926 30.9849 19.8095 32.0813 19.9915 32.9336C20.0821 33.3584 20.1931 33.7428 20.3328 34.0515C20.4639 34.3413 20.6602 34.6559 20.9747 34.8121L21.4196 33.9165C21.4251 33.9193 21.3503 33.8746 21.2439 33.6393C21.146 33.423 21.0531 33.1166 20.9694 32.7249C20.8028 31.9442 20.6895 30.9051 20.6179 29.7552C20.4751 27.4602 20.5023 24.7971 20.5718 23.0454L19.5726 23.0058Z" fill="#7B7BD7"/>
<path d="M11.853 6.73777L11.6659 7.20147C11.8316 7.26828 12.0203 7.24167 12.161 7.13165C12.3017 7.02164 12.373 6.84493 12.3481 6.66807L11.853 6.73777ZM7.85744 9.15971L8.34416 9.27417L7.85744 9.15971ZM10.0409 12.8884L9.9941 13.3862L9.99561 13.3864L10.0409 12.8884ZM10.0411 12.8884L10.0879 12.3906L10.0864 12.3905L10.0411 12.8884ZM10.246 12.9082L10.1952 13.4057C10.3776 13.4243 10.5556 13.3416 10.6589 13.1902C10.7623 13.0388 10.7746 12.843 10.6909 12.6799L10.246 12.9082ZM12.6147 14.7325L12.2773 15.1015C12.2929 15.1157 12.3093 15.1289 12.3265 15.141L12.6147 14.7325ZM17.4011 18.7169L17.8501 18.4969C17.8253 18.4462 17.792 18.4001 17.7518 18.3606L17.4011 18.7169ZM18.0151 19.9696L17.7845 20.4132C17.9761 20.5128 18.21 20.4782 18.3645 20.3273C18.519 20.1764 18.5591 19.9434 18.4641 19.7495L18.0151 19.9696ZM6.68525 14.0787L6.9159 13.6351C6.86543 13.6089 6.81084 13.5914 6.7545 13.5836L6.68525 14.0787ZM3.76634 22.5877L3.30456 22.7794L3.76634 22.5877ZM7.99758 23.8758L8.42131 24.1413H8.42131L7.99758 23.8758ZM8.15029 23.6333L8.57214 23.9017C8.65187 23.7764 8.67177 23.6221 8.62644 23.4807C8.58111 23.3392 8.47525 23.2253 8.33754 23.1696L8.15029 23.6333ZM11.0953 22.5877L11.1979 23.0771C11.2303 23.0703 11.262 23.0603 11.2924 23.0472L11.0953 22.5877ZM18.3647 20.6828L18.8137 20.4627C18.7243 20.2803 18.5334 20.1701 18.3308 20.1839L18.3647 20.6828ZM18.8254 21.6226L18.3764 21.8427C18.4904 22.0752 18.7631 22.1823 19.0048 22.0894C19.2465 21.9965 19.3773 21.7344 19.3062 21.4854L18.8254 21.6226ZM18.5415 20.6721L18.515 20.1728C18.3611 20.1809 18.2195 20.2596 18.1313 20.3861C18.0431 20.5126 18.0182 20.6726 18.0638 20.8199L18.5415 20.6721ZM19.259 20.6586L19.7507 20.5683C19.7078 20.3343 19.5059 20.163 19.268 20.1586L19.259 20.6586ZM19.3837 21.3384L18.892 21.4287C18.9376 21.6771 19.1612 21.8525 19.4132 21.8376C19.6653 21.8227 19.8667 21.6221 19.8827 21.3701L19.3837 21.3384ZM21.5965 9.69565L21.4017 9.23515L21.5965 9.69565ZM23.704 11.3025L23.2205 11.4303C23.2603 11.5809 23.3681 11.7044 23.5121 11.7642C23.656 11.8241 23.8195 11.8133 23.9544 11.7353L23.704 11.3025ZM22.6096 5.34041L22.3581 5.77255L22.6096 5.34041ZM19.9813 4.50583L19.4989 4.37453C19.4572 4.52776 19.4907 4.69169 19.5893 4.8162C19.6879 4.9407 19.8397 5.01098 19.9984 5.00553L19.9813 4.50583ZM16.0414 1.12762L16.1659 0.643373L16.0414 1.12762ZM18.1713 19.5095L18.5383 19.17C18.3788 18.9975 18.1208 18.9593 17.9182 19.0782C17.7157 19.1971 17.6231 19.4409 17.6958 19.6643L18.1713 19.5095ZM18.8113 20.2394L18.4257 20.5578C18.5844 20.75 18.8605 20.7959 19.0729 20.6655C19.2854 20.535 19.3692 20.268 19.2695 20.0395L18.8113 20.2394ZM17.1169 16.3562L16.6432 16.5161C16.6478 16.5297 16.6529 16.543 16.6586 16.5561L17.1169 16.3562ZM14.7706 6.72829L15.1706 7.02829L14.7706 6.72829ZM18.079 5.5804L18.4898 5.86543C18.6353 5.65574 18.5995 5.37011 18.4067 5.2028L18.079 5.5804ZM17.1952 9.41541L16.6956 9.43352C16.6965 9.45773 16.6991 9.48185 16.7035 9.50568L17.1952 9.41541ZM19.2504 20.6118L19.0197 21.0555C19.1892 21.1436 19.394 21.1274 19.5475 21.0139C19.7011 20.9005 19.7766 20.7094 19.7422 20.5216L19.2504 20.6118ZM18.3806 20.1596L17.9041 20.3111C17.9442 20.4371 18.0326 20.5422 18.1499 20.6032L18.3806 20.1596ZM17.0411 32.4356L16.542 32.4057C16.5269 32.6571 16.7012 32.8805 16.9487 32.927C17.1963 32.9735 17.4397 32.8286 17.517 32.5889L17.0411 32.4356ZM20.0722 23.0256L20.5718 23.0454C20.5817 22.7957 20.4057 22.577 20.1596 22.5333C19.9135 22.4896 19.6729 22.6344 19.5963 22.8723L20.0722 23.0256ZM16.9754 31.7187L17.4586 31.5899C17.4203 31.4464 17.3202 31.3273 17.1854 31.2649C17.0506 31.2026 16.8951 31.2033 16.7609 31.2671L16.9754 31.7187ZM12.7734 31.3718L12.3087 31.5563H12.3087L12.7734 31.3718ZM19.5127 22.1841L19.8712 22.5326C20.0454 22.3535 20.0606 22.0731 19.9067 21.8762C19.7528 21.6792 19.4771 21.6262 19.2611 21.752L19.5127 22.1841ZM9.38849 28.081L9.13684 27.6489C9.11366 27.6624 9.09161 27.6777 9.07089 27.6948L9.38849 28.081ZM10.3865 34.9547L10.5579 34.485L10.3865 34.9547ZM16.5933 33.8255L17.0693 33.9788C17.147 33.7376 17.0319 33.4764 16.8016 33.3709C16.5712 33.2654 16.2983 33.3489 16.1664 33.5653L16.5933 33.8255ZM16.4799 34.1777L16.004 34.0244C15.9958 34.0499 15.9896 34.0761 15.9856 34.1026L16.4799 34.1777ZM21.8153 38.6249L22.0016 39.089L21.8153 38.6249ZM23.6116 33.0483L23.885 32.6297C23.7606 32.5485 23.6066 32.5268 23.4646 32.5704C23.3227 32.6141 23.2075 32.7186 23.1502 32.8556L23.6116 33.0483ZM21.1971 34.3643L21.4196 33.9165H21.4196L21.1971 34.3643ZM12.04 6.27408C11.1745 5.92493 10.174 5.86898 9.28678 6.30737C8.38955 6.75071 7.69769 7.65481 7.37071 9.04526L8.34416 9.27417C8.62039 8.09951 9.16211 7.48439 9.72977 7.2039C10.3074 6.91846 11.0031 6.93409 11.6659 7.20147L12.04 6.27408ZM7.37071 9.04526C6.95482 10.8138 7.12856 11.947 7.80412 12.6242C8.13102 12.9519 8.53173 13.1236 8.91134 13.2229C9.28614 13.3208 9.67649 13.3564 9.9941 13.3862L10.0877 12.3906C9.75585 12.3594 9.44723 12.3293 9.1642 12.2554C8.88598 12.1826 8.67001 12.0762 8.51207 11.9179C8.21794 11.6231 7.94937 10.953 8.34416 9.27417L7.37071 9.04526ZM9.99561 13.3864L9.99583 13.3864L10.0864 12.3905L10.0861 12.3905L9.99561 13.3864ZM9.99431 13.3863C10.0643 13.3928 10.1307 13.3991 10.1952 13.4057L10.2968 12.4108C10.2276 12.4038 10.1571 12.3971 10.0879 12.3906L9.99431 13.3863ZM10.6909 12.6799C10.6878 12.6739 10.6931 12.6831 10.6997 12.7037C10.704 12.7168 10.7246 12.7809 10.716 12.8705C10.7055 12.9804 10.6459 13.1412 10.4786 13.2378C10.3435 13.316 10.219 13.3023 10.1832 13.2973C10.1091 13.2868 10.0718 13.2602 10.104 13.2777C10.1209 13.2868 10.1507 13.3049 10.1953 13.3353C10.3779 13.4599 10.6664 13.6924 10.9836 13.961C11.2956 14.2252 11.619 14.5103 11.8653 14.7301C11.9882 14.8398 12.0914 14.9329 12.1639 14.9985C12.2001 15.0312 12.2286 15.0571 12.248 15.0748C12.2576 15.0836 12.2651 15.0903 12.27 15.0948C12.2725 15.0971 12.2744 15.0988 12.2756 15.0999C12.2762 15.1005 12.2766 15.1009 12.2769 15.1012C12.2771 15.1013 12.2772 15.1014 12.2773 15.1015C12.2773 15.1015 12.2773 15.1015 12.2773 15.1015C12.2773 15.1015 12.2773 15.1015 12.6147 14.7325C12.952 14.3634 12.952 14.3634 12.952 14.3634C12.952 14.3634 12.9519 14.3633 12.9519 14.3633C12.9518 14.3632 12.9516 14.3631 12.9514 14.3629C12.9511 14.3626 12.9506 14.3621 12.9499 14.3615C12.9485 14.3602 12.9465 14.3584 12.9439 14.356C12.9387 14.3512 12.931 14.3442 12.921 14.3351C12.901 14.3169 12.8718 14.2904 12.8349 14.257C12.7611 14.1902 12.6561 14.0956 12.5312 13.9841C12.2818 13.7615 11.9512 13.47 11.6298 13.1979C11.3136 12.9301 10.9893 12.6664 10.7587 12.5092C10.7 12.4691 10.639 12.4302 10.5803 12.3984C10.537 12.3749 10.4394 12.3235 10.3231 12.3071C10.2662 12.2991 10.1251 12.2871 9.97819 12.3721C9.79924 12.4755 9.73274 12.6481 9.72057 12.7752C9.71033 12.8821 9.73453 12.9688 9.74789 13.0102C9.76364 13.0591 9.78368 13.1024 9.8012 13.1366L10.6909 12.6799ZM12.6147 14.7325C12.3265 15.141 12.3264 15.141 12.3264 15.141C12.3264 15.141 12.3264 15.141 12.3265 15.141C12.3265 15.1411 12.3266 15.1411 12.3267 15.1412C12.3269 15.1414 12.3273 15.1416 12.3279 15.142C12.3289 15.1428 12.3307 15.144 12.333 15.1457C12.3376 15.149 12.3447 15.154 12.3542 15.1607C12.3731 15.1742 12.4014 15.1945 12.4384 15.2212C12.5124 15.2745 12.621 15.3535 12.7585 15.4552C13.0334 15.6585 13.4231 15.9522 13.8804 16.3124C14.7967 17.0342 15.9777 18.0177 17.0504 19.0733L17.7518 18.3606C16.643 17.2694 15.4308 16.2607 14.4992 15.5269C14.0326 15.1594 13.6348 14.8595 13.3531 14.6512C13.2122 14.547 13.1003 14.4656 13.0233 14.4101C12.9848 14.3823 12.9551 14.361 12.9348 14.3465C12.9246 14.3393 12.9168 14.3337 12.9115 14.33C12.9088 14.3281 12.9067 14.3266 12.9053 14.3256C12.9046 14.3251 12.904 14.3247 12.9036 14.3244C12.9034 14.3243 12.9033 14.3242 12.9032 14.3241C12.9031 14.324 12.903 14.324 12.903 14.324C12.903 14.3239 12.9029 14.3239 12.6147 14.7325ZM16.9522 18.937L17.5662 20.1897L18.4641 19.7495L17.8501 18.4969L16.9522 18.937ZM18.2458 19.526L6.9159 13.6351L6.45459 14.5224L17.7845 20.4132L18.2458 19.526ZM6.7545 13.5836C5.28074 13.3775 3.85181 14.4477 3.0991 16.091C2.33213 17.7653 2.2007 20.1207 3.30456 22.7794L4.22812 22.396C3.21599 19.9582 3.37251 17.8953 4.00826 16.5074C4.65825 15.0884 5.74677 14.4524 6.616 14.5739L6.7545 13.5836ZM3.30456 22.7794C3.81433 24.0072 4.29501 24.8486 4.76528 25.3781C5.23972 25.9122 5.7671 26.1937 6.33857 26.1187C6.86982 26.0489 7.284 25.6851 7.59011 25.3314C7.90506 24.9675 8.18509 24.5184 8.42131 24.1413L7.57384 23.6104C7.32791 24.003 7.08899 24.3823 6.83397 24.677C6.57012 24.9819 6.36331 25.1068 6.20832 25.1272C6.09355 25.1422 5.86945 25.1154 5.51293 24.714C5.15224 24.3079 4.72249 23.5867 4.22812 22.396L3.30456 22.7794ZM8.42131 24.1413C8.47322 24.0584 8.52315 23.9787 8.57214 23.9017L7.72845 23.3649C7.67723 23.4454 7.62539 23.5281 7.57384 23.6104L8.42131 24.1413ZM8.33754 23.1696C8.34009 23.1707 8.3604 23.1789 8.38829 23.1988C8.41561 23.2184 8.46568 23.2603 8.50597 23.3332C8.61363 23.5279 8.54258 23.7119 8.48881 23.7903C8.4489 23.8484 8.41199 23.8665 8.43396 23.8523C8.44704 23.8439 8.47526 23.828 8.52391 23.8058C8.72697 23.713 9.08198 23.6 9.49357 23.4869C9.89583 23.3765 10.3218 23.274 10.6491 23.1987C10.8123 23.1612 10.95 23.1307 11.0468 23.1096C11.0951 23.099 11.1332 23.0908 11.159 23.0853C11.172 23.0825 11.1818 23.0805 11.1884 23.0791C11.1917 23.0784 11.1941 23.0779 11.1957 23.0775C11.1965 23.0773 11.1971 23.0772 11.1975 23.0771C11.1977 23.0771 11.1978 23.0771 11.1979 23.0771C11.1979 23.0771 11.1979 23.0771 11.198 23.077C11.198 23.077 11.1979 23.0771 11.0953 22.5877C10.9927 22.0983 10.9927 22.0983 10.9926 22.0984C10.9926 22.0984 10.9925 22.0984 10.9925 22.0984C10.9923 22.0984 10.9921 22.0985 10.9919 22.0985C10.9914 22.0986 10.9906 22.0988 10.9897 22.099C10.9878 22.0994 10.985 22.1 10.9814 22.1007C10.9742 22.1022 10.9637 22.1045 10.9502 22.1074C10.923 22.1132 10.8835 22.1217 10.8336 22.1325C10.7339 22.1543 10.5924 22.1857 10.425 22.2241C10.091 22.3009 9.64996 22.407 9.22873 22.5227C8.81684 22.6358 8.39197 22.7666 8.10825 22.8962C8.03521 22.9296 7.96005 22.968 7.89197 23.0119C7.83279 23.0501 7.73693 23.1186 7.66419 23.2246C7.57759 23.3508 7.49983 23.5801 7.63078 23.817C7.72823 23.9933 7.89093 24.0678 7.96305 24.0969L8.33754 23.1696ZM11.0953 22.5877C11.2924 23.0472 11.2923 23.0472 11.2923 23.0473C11.2923 23.0473 11.2923 23.0473 11.2923 23.0473C11.2924 23.0472 11.2925 23.0472 11.2926 23.0471C11.2929 23.047 11.2935 23.0468 11.2943 23.0464C11.2959 23.0457 11.2984 23.0447 11.3018 23.0432C11.3086 23.0403 11.3191 23.0359 11.3332 23.03C11.3613 23.0182 11.4035 23.0007 11.4587 22.9782C11.5692 22.9331 11.7318 22.868 11.9378 22.789C12.3499 22.6309 12.9345 22.4175 13.6226 22.1971C15.0054 21.7541 16.778 21.2919 18.3986 21.1816L18.3308 20.1839C16.5914 20.3023 14.7294 20.7925 13.3175 21.2448C12.6082 21.472 12.0055 21.692 11.5796 21.8554C11.3666 21.9371 11.1974 22.0048 11.081 22.0523C11.0228 22.076 10.9778 22.0947 10.9469 22.1076C10.9315 22.1141 10.9197 22.1191 10.9115 22.1225C10.9075 22.1242 10.9043 22.1256 10.9021 22.1265C10.901 22.127 10.9001 22.1274 10.8995 22.1276C10.8992 22.1278 10.8989 22.1279 10.8987 22.128C10.8986 22.128 10.8985 22.1281 10.8985 22.1281C10.8984 22.1281 10.8983 22.1282 11.0953 22.5877ZM17.9157 20.9028L18.3764 21.8427L19.2744 21.4026L18.8137 20.4627L17.9157 20.9028ZM19.3062 21.4854C19.2199 21.1833 19.1235 20.8616 19.0191 20.5242L18.0638 20.8199C18.1666 21.152 18.2608 21.4665 18.3446 21.7599L19.3062 21.4854ZM18.5679 21.1714C18.8004 21.1591 19.0282 21.1545 19.2499 21.1585L19.268 20.1586C19.0203 20.1541 18.7686 20.1593 18.515 20.1728L18.5679 21.1714ZM18.7672 20.7488L18.892 21.4287L19.8755 21.2482L19.7507 20.5683L18.7672 20.7488ZM19.8827 21.3701C19.9987 19.5456 20.2479 16.7791 20.6175 14.4109C20.8026 13.2246 21.0155 12.1547 21.252 11.3574C21.3708 10.9573 21.4901 10.6447 21.6055 10.426C21.7337 10.1832 21.8094 10.1485 21.7913 10.1561L21.4017 9.23515C21.0809 9.37087 20.8678 9.68145 20.7212 9.95918C20.5619 10.2609 20.4206 10.6441 20.2934 11.073C20.0379 11.9337 19.817 13.0549 19.6294 14.2567C19.2536 16.665 19.0019 19.4638 18.8848 21.3067L19.8827 21.3701ZM21.7913 10.1561C21.9978 10.0688 22.1514 10.0718 22.2718 10.1061C22.4007 10.1429 22.5336 10.2283 22.6663 10.369C22.9402 10.6597 23.1341 11.1032 23.2205 11.4303L24.1874 11.1748C24.0759 10.7528 23.8215 10.1367 23.394 9.68314C23.1759 9.45177 22.8948 9.2439 22.546 9.14444C22.1885 9.04252 21.8008 9.06635 21.4017 9.23515L21.7913 10.1561ZM23.9544 11.7353C24.7743 11.2607 25.8055 10.317 25.9324 9.03073C26.065 7.68637 25.1937 6.26589 22.8611 4.90827L22.3581 5.77255C24.571 7.06051 25.0116 8.17857 24.9372 8.9326C24.8571 9.7447 24.1628 10.4593 23.4535 10.8698L23.9544 11.7353ZM22.8611 4.90827C21.7533 4.26347 20.7936 3.97767 19.9642 4.00612L19.9984 5.00553C20.5736 4.98581 21.3446 5.18266 22.3581 5.77255L22.8611 4.90827ZM20.4638 4.63712C20.5621 4.27571 20.5947 3.88653 20.5014 3.48812C20.4076 3.08713 20.194 2.71015 19.8515 2.36429C19.1828 1.68893 18.0081 1.11708 16.1659 0.643373L15.9169 1.61186C17.7072 2.07225 18.6661 2.58829 19.141 3.0679C19.3703 3.29953 19.4811 3.51681 19.5277 3.71601C19.575 3.91779 19.5641 4.13473 19.4989 4.37453L20.4638 4.63712ZM16.1659 0.643373C15.2462 0.406854 14.4279 0.470266 13.7309 0.783767C13.0384 1.09524 12.5091 1.63384 12.1264 2.27517C11.3689 3.54475 11.1431 5.28178 11.3579 6.80747L12.3481 6.66807C12.1564 5.30653 12.3729 3.81368 12.9852 2.78759C13.2874 2.28109 13.675 1.90541 14.1411 1.69576C14.6027 1.48814 15.1847 1.42358 15.9169 1.61186L16.1659 0.643373ZM17.8042 19.849C18.0231 20.0856 18.2314 20.3225 18.4257 20.5578L19.1968 19.9211C18.989 19.6694 18.7681 19.4183 18.5383 19.17L17.8042 19.849ZM19.2695 20.0395L17.5752 16.1562L16.6586 16.5561L18.353 20.4394L19.2695 20.0395ZM17.5906 16.1962C16.8721 14.0687 16.138 11.8803 15.6591 10.1233C15.4192 9.24326 15.2484 8.48937 15.1736 7.91444C15.136 7.62622 15.1251 7.40033 15.1361 7.23481C15.1481 7.05444 15.1822 7.0128 15.1706 7.02829L14.3706 6.42829C14.2063 6.64742 14.1544 6.92665 14.1383 7.16847C14.1212 7.42514 14.1402 7.72277 14.1819 8.04349C14.2656 8.68645 14.4505 9.49217 14.6943 10.3863C15.1825 12.1776 15.9271 14.3959 16.6432 16.5161L17.5906 16.1962ZM15.1706 7.02829C15.8903 6.06869 16.4458 5.74042 16.8224 5.66249C17.17 5.59055 17.4685 5.71256 17.7512 5.95799L18.4067 5.2028C17.9791 4.83157 17.3736 4.52723 16.6197 4.68324C15.8948 4.83327 15.1514 5.38727 14.3706 6.42829L15.1706 7.02829ZM17.6682 5.29536C16.8492 6.47572 16.6513 8.21066 16.6956 9.43352L17.6949 9.39731C17.6533 8.24988 17.8554 6.77977 18.4898 5.86543L17.6682 5.29536ZM16.7035 9.50568L18.7586 20.7021L19.7422 20.5216L17.687 9.32515L16.7035 9.50568ZM19.481 20.1682L18.6112 19.716L18.1499 20.6032L19.0197 21.0555L19.481 20.1682ZM18.8571 20.0081C18.7894 19.7953 18.7192 19.5772 18.6467 19.3547L17.6958 19.6643C17.7677 19.8849 17.8372 20.1008 17.9041 20.3111L18.8571 20.0081ZM17.517 32.5889L20.5481 23.1789L19.5963 22.8723L16.5651 32.2823L17.517 32.5889ZM16.4923 31.8475C16.5354 32.0092 16.5544 32.1984 16.542 32.4057L17.5402 32.4655C17.5583 32.1636 17.5323 31.8663 17.4586 31.5899L16.4923 31.8475ZM12.3087 31.5563C12.5111 32.066 12.9503 32.3442 13.3954 32.4881C13.8383 32.6312 14.3493 32.6644 14.8288 32.6468C15.7777 32.6119 16.7721 32.3688 17.19 32.1704L16.7609 31.2671C16.499 31.3915 15.647 31.616 14.792 31.6475C14.3697 31.663 13.9894 31.6291 13.7029 31.5365C13.4186 31.4447 13.2903 31.3186 13.2381 31.1872L12.3087 31.5563ZM19.1543 21.8355C17.9178 23.107 16.0933 25.0966 14.6381 26.9349C13.9121 27.8521 13.2665 28.746 12.8323 29.5017C12.616 29.8783 12.4417 30.2385 12.3393 30.5615C12.2432 30.8647 12.1791 31.2299 12.3087 31.5563L13.2381 31.1872C13.2404 31.193 13.2146 31.1098 13.2926 30.8636C13.3643 30.6373 13.4999 30.3472 13.6995 29.9999C14.0971 29.3077 14.7071 28.4589 15.4222 27.5555C16.8494 25.7526 18.6491 23.7895 19.8712 22.5326L19.1543 21.8355ZM9.64015 28.513L19.7644 22.6161L19.2611 21.752L9.13684 27.6489L9.64015 28.513ZM10.5579 34.485C9.31342 34.0307 8.5829 33.5025 8.18131 32.9866C7.79038 32.4844 7.68522 31.9616 7.75417 31.4369C7.89927 30.3328 8.82519 29.1916 9.7061 28.4671L9.07089 27.6948C8.12462 28.4731 6.95772 29.8226 6.7627 31.3066C6.6616 32.0759 6.82455 32.8716 7.39221 33.6008C7.9492 34.3163 8.86773 34.9326 10.215 35.4244L10.5579 34.485ZM16.1664 33.5653C15.8208 34.1324 15.2266 34.6437 14.3313 34.879C13.4313 35.1156 12.1919 35.0815 10.5579 34.485L10.215 35.4244C11.9865 36.0711 13.4392 36.1475 14.5855 35.8461C15.7366 35.5436 16.5431 34.8686 17.0203 34.0857L16.1664 33.5653ZM16.9558 34.331L17.0693 33.9788L16.1174 33.6722L16.004 34.0244L16.9558 34.331ZM21.629 38.1609C20.3995 38.6545 19.5031 38.7496 18.8596 38.6341C18.2332 38.5216 17.8056 38.203 17.5063 37.7665C16.8765 36.8481 16.8029 35.3804 16.9742 34.2528L15.9856 34.1026C15.8016 35.3139 15.8351 37.0977 16.6816 38.3321C17.1204 38.972 17.7733 39.4551 18.6829 39.6183C19.5754 39.7785 20.6705 39.6232 22.0016 39.089L21.629 38.1609ZM23.3382 33.467C23.6832 33.6922 24.0356 33.999 24.2971 34.3514C24.559 34.7044 24.7098 35.0749 24.7095 35.4412C24.7089 36.125 24.1506 37.1487 21.629 38.1609L22.0016 39.089C24.6011 38.0455 25.7084 36.7821 25.7095 35.442C25.71 34.7964 25.4455 34.2209 25.1002 33.7555C24.7544 33.2895 24.3075 32.9056 23.885 32.6297L23.3382 33.467ZM20.9747 34.8121C21.8008 35.2225 22.5356 35.0011 23.0645 34.5926C23.5669 34.2046 23.9064 33.6399 24.073 33.241L23.1502 32.8556C23.0268 33.1511 22.7768 33.5513 22.4533 33.8012C22.1563 34.0305 21.829 34.1199 21.4196 33.9165L20.9747 34.8121ZM19.5726 23.0058C19.5023 24.7779 19.4742 27.4773 19.6199 29.8173C19.6926 30.9849 19.8095 32.0813 19.9915 32.9336C20.0821 33.3584 20.1931 33.7428 20.3328 34.0515C20.4639 34.3413 20.6602 34.6559 20.9747 34.8121L21.4196 33.9165C21.4251 33.9193 21.3503 33.8746 21.2439 33.6393C21.146 33.423 21.0531 33.1166 20.9694 32.7249C20.8028 31.9442 20.6895 30.9051 20.6179 29.7552C20.4751 27.4602 20.5023 24.7971 20.5718 23.0454L19.5726 23.0058Z" fill="url(#paint1_radial_1_559)"/>
</g>
<defs>
<filter id="filter0_dd_1_559" x="0.5" y="0.500244" width="27.4454" height="40.1781" filterUnits="userSpaceOnUse" color-interpolation-filters="sRGB">
<feFlood flood-opacity="0" result="BackgroundImageFix"/>
<feColorMatrix in="SourceAlpha" type="matrix" values="0 0 0 0 0 0 0 0 0 0 0 0 0 0 0 0 0 0 127 0" result="hardAlpha"/>
<feOffset dx="-2"/>
<feComposite in2="hardAlpha" operator="out"/>
<feColorMatrix type="matrix" values="0 0 0 0 0 0 0 0 0 0 0 0 0 0 0 0 0 0 0.32 0"/>
<feBlend mode="normal" in2="BackgroundImageFix" result="effect1_dropShadow_1_559"/>
<feColorMatrix in="SourceAlpha" type="matrix" values="0 0 0 0 0 0 0 0 0 0 0 0 0 0 0 0 0 0 127 0" result="hardAlpha"/>
<feOffset dx="2" dy="1"/>
<feComposite in2="hardAlpha" operator="out"/>
<feColorMatrix type="matrix" values="0 0 0 0 0 0 0 0 0 0 0 0 0 0 0 0 0 0 0.04 0"/>
<feBlend mode="normal" in2="effect1_dropShadow_1_559" result="effect2_dropShadow_1_559"/>
<feBlend mode="normal" in="SourceGraphic" in2="effect2_dropShadow_1_559" result="shape"/>
</filter>
<radialGradient id="paint0_radial_1_559" cx="0" cy="0" r="1" gradientUnits="userSpaceOnUse" gradientTransform="translate(37.5563 14.8901) rotate(163.935) scale(34.4203 19.9071)">
<stop stop-color="#B2B2FF"/>
<stop offset="0.82" stop-color="#9A9AEE"/>
<stop offset="1" stop-color="#7B7BD7"/>
</radialGradient>
<radialGradient id="paint1_radial_1_559" cx="0" cy="0" r="1" gradientUnits="userSpaceOnUse" gradientTransform="translate(37.5563 14.8901) rotate(163.935) scale(34.4203 19.9071)">
<stop stop-color="#B2B2FF"/>
<stop offset="1" stop-color="#7B7BD7"/>
</radialGradient>
</defs>
</svg>
