<svg width="26" height="22" viewBox="0 0 26 22" fill="none" xmlns="http://www.w3.org/2000/svg">
<path d="M9.32065 18.9912C13.6809 20.9441 18.8179 18.9497 20.7945 14.5367C22.771 10.1236 20.8387 4.96299 16.4785 3.01008C12.1182 1.05716 6.98123 3.0515 5.00465 7.46455C3.02808 11.8776 4.96041 17.0383 9.32065 18.9912Z" fill="white"/>
<path fill-rule="evenodd" clip-rule="evenodd" d="M15.122 13.5352C8.52266 19.4276 2.17785 23.0694 0.950472 21.6694C0.14099 20.7461 1.75958 17.8604 4.84877 14.3121C5.25939 15.3459 5.86645 16.2998 6.64689 17.1121C8.56264 15.4524 9.35467 14.7146 12.916 11.513C16.4773 8.3113 17.4676 7.31897 19.5637 5.34935C18.901 4.55163 18.0864 3.86543 17.1379 3.33958C21.0041 0.677727 24.0393 -0.591884 24.8488 0.331391C26.0762 1.73135 21.7213 7.64291 15.122 13.5352Z" fill="white"/>
</svg>
